%TF.GenerationSoftware,KiCad,Pcbnew,10.0.3*%
%TF.CreationDate,2026-06-15T21:55:23+02:00*%
%TF.ProjectId,FC,46432e6b-6963-4616-945f-706362585858,v1.0*%
%TF.SameCoordinates,Original*%
%TF.FileFunction,Soldermask,Top*%
%TF.FilePolarity,Negative*%
%FSLAX46Y46*%
G04 Gerber Fmt 4.6, Leading zero omitted, Abs format (unit mm)*
G04 Created by KiCad (PCBNEW 10.0.3) date 2026-06-15 21:55:23*
%MOMM*%
%LPD*%
G01*
G04 APERTURE LIST*
G04 Aperture macros list*
%AMRoundRect*
0 Rectangle with rounded corners*
0 $1 Rounding radius*
0 $2 $3 $4 $5 $6 $7 $8 $9 X,Y pos of 4 corners*
0 Add a 4 corners polygon primitive as box body*
4,1,4,$2,$3,$4,$5,$6,$7,$8,$9,$2,$3,0*
0 Add four circle primitives for the rounded corners*
1,1,$1+$1,$2,$3*
1,1,$1+$1,$4,$5*
1,1,$1+$1,$6,$7*
1,1,$1+$1,$8,$9*
0 Add four rect primitives between the rounded corners*
20,1,$1+$1,$2,$3,$4,$5,0*
20,1,$1+$1,$4,$5,$6,$7,0*
20,1,$1+$1,$6,$7,$8,$9,0*
20,1,$1+$1,$8,$9,$2,$3,0*%
G04 Aperture macros list end*
%ADD10C,0.010000*%
%ADD11RoundRect,0.225000X0.225000X0.250000X-0.225000X0.250000X-0.225000X-0.250000X0.225000X-0.250000X0*%
%ADD12R,4.000000X4.000000*%
%ADD13RoundRect,0.250000X0.650000X-0.325000X0.650000X0.325000X-0.650000X0.325000X-0.650000X-0.325000X0*%
%ADD14RoundRect,0.225000X0.250000X-0.225000X0.250000X0.225000X-0.250000X0.225000X-0.250000X-0.225000X0*%
%ADD15RoundRect,0.250000X0.475000X-0.250000X0.475000X0.250000X-0.475000X0.250000X-0.475000X-0.250000X0*%
%ADD16RoundRect,0.218750X-0.218750X-0.256250X0.218750X-0.256250X0.218750X0.256250X-0.218750X0.256250X0*%
%ADD17RoundRect,0.140000X0.170000X-0.140000X0.170000X0.140000X-0.170000X0.140000X-0.170000X-0.140000X0*%
%ADD18RoundRect,0.250000X0.250000X0.475000X-0.250000X0.475000X-0.250000X-0.475000X0.250000X-0.475000X0*%
%ADD19RoundRect,0.250000X-0.475000X0.250000X-0.475000X-0.250000X0.475000X-0.250000X0.475000X0.250000X0*%
%ADD20R,0.622000X1.105000*%
%ADD21R,0.450000X1.208000*%
%ADD22R,1.000000X1.500000*%
%ADD23RoundRect,0.225000X-0.225000X-0.250000X0.225000X-0.250000X0.225000X0.250000X-0.225000X0.250000X0*%
%ADD24RoundRect,0.250000X-0.325000X-0.450000X0.325000X-0.450000X0.325000X0.450000X-0.325000X0.450000X0*%
%ADD25RoundRect,0.250000X-0.250000X-0.475000X0.250000X-0.475000X0.250000X0.475000X-0.250000X0.475000X0*%
%ADD26R,1.800000X1.000000*%
%ADD27RoundRect,0.060500X0.181500X-0.776500X0.181500X0.776500X-0.181500X0.776500X-0.181500X-0.776500X0*%
%ADD28RoundRect,0.060500X0.776500X-0.181500X0.776500X0.181500X-0.776500X0.181500X-0.776500X-0.181500X0*%
%ADD29RoundRect,0.087500X-0.187500X-0.087500X0.187500X-0.087500X0.187500X0.087500X-0.187500X0.087500X0*%
%ADD30RoundRect,0.087500X-0.087500X-0.187500X0.087500X-0.187500X0.087500X0.187500X-0.087500X0.187500X0*%
%ADD31R,1.860000X1.230000*%
%ADD32RoundRect,0.140000X-0.170000X0.140000X-0.170000X-0.140000X0.170000X-0.140000X0.170000X0.140000X0*%
%ADD33RoundRect,0.190500X-1.079500X-0.444500X1.079500X-0.444500X1.079500X0.444500X-1.079500X0.444500X0*%
%ADD34RoundRect,0.100000X0.100000X-0.130000X0.100000X0.130000X-0.100000X0.130000X-0.100000X-0.130000X0*%
%ADD35C,0.700000*%
%ADD36RoundRect,0.102000X0.300000X0.725000X-0.300000X0.725000X-0.300000X-0.725000X0.300000X-0.725000X0*%
%ADD37RoundRect,0.102000X0.150000X0.725000X-0.150000X0.725000X-0.150000X-0.725000X0.150000X-0.725000X0*%
%ADD38O,1.254000X2.304000*%
%ADD39C,2.200000*%
%ADD40R,1.230000X1.860000*%
%ADD41R,1.200000X1.400000*%
%ADD42RoundRect,0.237500X-0.250000X-0.237500X0.250000X-0.237500X0.250000X0.237500X-0.250000X0.237500X0*%
%ADD43RoundRect,0.100000X-0.130000X-0.100000X0.130000X-0.100000X0.130000X0.100000X-0.130000X0.100000X0*%
%ADD44R,0.300000X0.300000*%
%ADD45RoundRect,0.100000X-0.100000X0.130000X-0.100000X-0.130000X0.100000X-0.130000X0.100000X0.130000X0*%
%ADD46RoundRect,0.225000X-0.250000X0.225000X-0.250000X-0.225000X0.250000X-0.225000X0.250000X0.225000X0*%
G04 APERTURE END LIST*
D10*
%TO.C,U2*%
X172700000Y-110075000D02*
X172200000Y-110075000D01*
X172195000Y-110075000D01*
X172190000Y-110076000D01*
X172184000Y-110076000D01*
X172179000Y-110077000D01*
X172174000Y-110078000D01*
X172169000Y-110080000D01*
X172164000Y-110082000D01*
X172159000Y-110084000D01*
X172155000Y-110086000D01*
X172150000Y-110088000D01*
X172146000Y-110091000D01*
X172141000Y-110094000D01*
X172137000Y-110097000D01*
X172133000Y-110101000D01*
X172129000Y-110104000D01*
X172126000Y-110108000D01*
X172122000Y-110112000D01*
X172119000Y-110116000D01*
X172116000Y-110121000D01*
X172113000Y-110125000D01*
X172111000Y-110130000D01*
X172109000Y-110134000D01*
X172107000Y-110139000D01*
X172105000Y-110144000D01*
X172103000Y-110149000D01*
X172102000Y-110154000D01*
X172101000Y-110159000D01*
X172101000Y-110165000D01*
X172100000Y-110170000D01*
X172100000Y-110175000D01*
X172100000Y-110325000D01*
X172100000Y-110330000D01*
X172101000Y-110335000D01*
X172101000Y-110341000D01*
X172102000Y-110346000D01*
X172103000Y-110351000D01*
X172105000Y-110356000D01*
X172107000Y-110361000D01*
X172109000Y-110366000D01*
X172111000Y-110370000D01*
X172113000Y-110375000D01*
X172116000Y-110379000D01*
X172119000Y-110384000D01*
X172122000Y-110388000D01*
X172126000Y-110392000D01*
X172129000Y-110396000D01*
X172133000Y-110399000D01*
X172137000Y-110403000D01*
X172141000Y-110406000D01*
X172146000Y-110409000D01*
X172150000Y-110412000D01*
X172155000Y-110414000D01*
X172159000Y-110416000D01*
X172164000Y-110418000D01*
X172169000Y-110420000D01*
X172174000Y-110422000D01*
X172179000Y-110423000D01*
X172184000Y-110424000D01*
X172190000Y-110424000D01*
X172195000Y-110425000D01*
X172200000Y-110425000D01*
X172700000Y-110425000D01*
X172705000Y-110425000D01*
X172710000Y-110424000D01*
X172716000Y-110424000D01*
X172721000Y-110423000D01*
X172726000Y-110422000D01*
X172731000Y-110420000D01*
X172736000Y-110418000D01*
X172741000Y-110416000D01*
X172745000Y-110414000D01*
X172750000Y-110412000D01*
X172754000Y-110409000D01*
X172759000Y-110406000D01*
X172763000Y-110403000D01*
X172767000Y-110399000D01*
X172771000Y-110396000D01*
X172774000Y-110392000D01*
X172778000Y-110388000D01*
X172781000Y-110384000D01*
X172784000Y-110379000D01*
X172787000Y-110375000D01*
X172789000Y-110370000D01*
X172791000Y-110366000D01*
X172793000Y-110361000D01*
X172795000Y-110356000D01*
X172797000Y-110351000D01*
X172798000Y-110346000D01*
X172799000Y-110341000D01*
X172799000Y-110335000D01*
X172800000Y-110330000D01*
X172800000Y-110325000D01*
X172800000Y-110175000D01*
X172800000Y-110170000D01*
X172799000Y-110165000D01*
X172799000Y-110159000D01*
X172798000Y-110154000D01*
X172797000Y-110149000D01*
X172795000Y-110144000D01*
X172793000Y-110139000D01*
X172791000Y-110134000D01*
X172789000Y-110130000D01*
X172787000Y-110125000D01*
X172784000Y-110121000D01*
X172781000Y-110116000D01*
X172778000Y-110112000D01*
X172774000Y-110108000D01*
X172771000Y-110104000D01*
X172767000Y-110101000D01*
X172763000Y-110097000D01*
X172759000Y-110094000D01*
X172754000Y-110091000D01*
X172750000Y-110088000D01*
X172745000Y-110086000D01*
X172741000Y-110084000D01*
X172736000Y-110082000D01*
X172731000Y-110080000D01*
X172726000Y-110078000D01*
X172721000Y-110077000D01*
X172716000Y-110076000D01*
X172710000Y-110076000D01*
X172705000Y-110075000D01*
X172700000Y-110075000D01*
G36*
X172710000Y-110076000D02*
G01*
X172716000Y-110076000D01*
X172721000Y-110077000D01*
X172726000Y-110078000D01*
X172731000Y-110080000D01*
X172736000Y-110082000D01*
X172741000Y-110084000D01*
X172745000Y-110086000D01*
X172750000Y-110088000D01*
X172754000Y-110091000D01*
X172759000Y-110094000D01*
X172763000Y-110097000D01*
X172767000Y-110101000D01*
X172771000Y-110104000D01*
X172774000Y-110108000D01*
X172778000Y-110112000D01*
X172781000Y-110116000D01*
X172784000Y-110121000D01*
X172787000Y-110125000D01*
X172789000Y-110130000D01*
X172791000Y-110134000D01*
X172793000Y-110139000D01*
X172795000Y-110144000D01*
X172797000Y-110149000D01*
X172798000Y-110154000D01*
X172799000Y-110159000D01*
X172799000Y-110165000D01*
X172800000Y-110170000D01*
X172800000Y-110175000D01*
X172800000Y-110325000D01*
X172800000Y-110330000D01*
X172799000Y-110335000D01*
X172799000Y-110341000D01*
X172798000Y-110346000D01*
X172797000Y-110351000D01*
X172795000Y-110356000D01*
X172793000Y-110361000D01*
X172791000Y-110366000D01*
X172789000Y-110370000D01*
X172787000Y-110375000D01*
X172784000Y-110379000D01*
X172781000Y-110384000D01*
X172778000Y-110388000D01*
X172774000Y-110392000D01*
X172771000Y-110396000D01*
X172767000Y-110399000D01*
X172763000Y-110403000D01*
X172759000Y-110406000D01*
X172754000Y-110409000D01*
X172750000Y-110412000D01*
X172745000Y-110414000D01*
X172741000Y-110416000D01*
X172736000Y-110418000D01*
X172731000Y-110420000D01*
X172726000Y-110422000D01*
X172721000Y-110423000D01*
X172716000Y-110424000D01*
X172710000Y-110424000D01*
X172705000Y-110425000D01*
X172700000Y-110425000D01*
X172200000Y-110425000D01*
X172195000Y-110425000D01*
X172190000Y-110424000D01*
X172184000Y-110424000D01*
X172179000Y-110423000D01*
X172174000Y-110422000D01*
X172169000Y-110420000D01*
X172164000Y-110418000D01*
X172159000Y-110416000D01*
X172155000Y-110414000D01*
X172150000Y-110412000D01*
X172146000Y-110409000D01*
X172141000Y-110406000D01*
X172137000Y-110403000D01*
X172133000Y-110399000D01*
X172129000Y-110396000D01*
X172126000Y-110392000D01*
X172122000Y-110388000D01*
X172119000Y-110384000D01*
X172116000Y-110379000D01*
X172113000Y-110375000D01*
X172111000Y-110370000D01*
X172109000Y-110366000D01*
X172107000Y-110361000D01*
X172105000Y-110356000D01*
X172103000Y-110351000D01*
X172102000Y-110346000D01*
X172101000Y-110341000D01*
X172101000Y-110335000D01*
X172100000Y-110330000D01*
X172100000Y-110325000D01*
X172100000Y-110175000D01*
X172100000Y-110170000D01*
X172101000Y-110165000D01*
X172101000Y-110159000D01*
X172102000Y-110154000D01*
X172103000Y-110149000D01*
X172105000Y-110144000D01*
X172107000Y-110139000D01*
X172109000Y-110134000D01*
X172111000Y-110130000D01*
X172113000Y-110125000D01*
X172116000Y-110121000D01*
X172119000Y-110116000D01*
X172122000Y-110112000D01*
X172126000Y-110108000D01*
X172129000Y-110104000D01*
X172133000Y-110101000D01*
X172137000Y-110097000D01*
X172141000Y-110094000D01*
X172146000Y-110091000D01*
X172150000Y-110088000D01*
X172155000Y-110086000D01*
X172159000Y-110084000D01*
X172164000Y-110082000D01*
X172169000Y-110080000D01*
X172174000Y-110078000D01*
X172179000Y-110077000D01*
X172184000Y-110076000D01*
X172190000Y-110076000D01*
X172195000Y-110075000D01*
X172200000Y-110075000D01*
X172700000Y-110075000D01*
X172705000Y-110075000D01*
X172710000Y-110076000D01*
G37*
X172700000Y-110575000D02*
X172200000Y-110575000D01*
X172195000Y-110575000D01*
X172190000Y-110576000D01*
X172184000Y-110576000D01*
X172179000Y-110577000D01*
X172174000Y-110578000D01*
X172169000Y-110580000D01*
X172164000Y-110582000D01*
X172159000Y-110584000D01*
X172155000Y-110586000D01*
X172150000Y-110588000D01*
X172146000Y-110591000D01*
X172141000Y-110594000D01*
X172137000Y-110597000D01*
X172133000Y-110601000D01*
X172129000Y-110604000D01*
X172126000Y-110608000D01*
X172122000Y-110612000D01*
X172119000Y-110616000D01*
X172116000Y-110621000D01*
X172113000Y-110625000D01*
X172111000Y-110630000D01*
X172109000Y-110634000D01*
X172107000Y-110639000D01*
X172105000Y-110644000D01*
X172103000Y-110649000D01*
X172102000Y-110654000D01*
X172101000Y-110659000D01*
X172101000Y-110665000D01*
X172100000Y-110670000D01*
X172100000Y-110675000D01*
X172100000Y-110825000D01*
X172100000Y-110830000D01*
X172101000Y-110835000D01*
X172101000Y-110841000D01*
X172102000Y-110846000D01*
X172103000Y-110851000D01*
X172105000Y-110856000D01*
X172107000Y-110861000D01*
X172109000Y-110866000D01*
X172111000Y-110870000D01*
X172113000Y-110875000D01*
X172116000Y-110879000D01*
X172119000Y-110884000D01*
X172122000Y-110888000D01*
X172126000Y-110892000D01*
X172129000Y-110896000D01*
X172133000Y-110899000D01*
X172137000Y-110903000D01*
X172141000Y-110906000D01*
X172146000Y-110909000D01*
X172150000Y-110912000D01*
X172155000Y-110914000D01*
X172159000Y-110916000D01*
X172164000Y-110918000D01*
X172169000Y-110920000D01*
X172174000Y-110922000D01*
X172179000Y-110923000D01*
X172184000Y-110924000D01*
X172190000Y-110924000D01*
X172195000Y-110925000D01*
X172200000Y-110925000D01*
X172700000Y-110925000D01*
X172705000Y-110925000D01*
X172710000Y-110924000D01*
X172716000Y-110924000D01*
X172721000Y-110923000D01*
X172726000Y-110922000D01*
X172731000Y-110920000D01*
X172736000Y-110918000D01*
X172741000Y-110916000D01*
X172745000Y-110914000D01*
X172750000Y-110912000D01*
X172754000Y-110909000D01*
X172759000Y-110906000D01*
X172763000Y-110903000D01*
X172767000Y-110899000D01*
X172771000Y-110896000D01*
X172774000Y-110892000D01*
X172778000Y-110888000D01*
X172781000Y-110884000D01*
X172784000Y-110879000D01*
X172787000Y-110875000D01*
X172789000Y-110870000D01*
X172791000Y-110866000D01*
X172793000Y-110861000D01*
X172795000Y-110856000D01*
X172797000Y-110851000D01*
X172798000Y-110846000D01*
X172799000Y-110841000D01*
X172799000Y-110835000D01*
X172800000Y-110830000D01*
X172800000Y-110825000D01*
X172800000Y-110675000D01*
X172800000Y-110670000D01*
X172799000Y-110665000D01*
X172799000Y-110659000D01*
X172798000Y-110654000D01*
X172797000Y-110649000D01*
X172795000Y-110644000D01*
X172793000Y-110639000D01*
X172791000Y-110634000D01*
X172789000Y-110630000D01*
X172787000Y-110625000D01*
X172784000Y-110621000D01*
X172781000Y-110616000D01*
X172778000Y-110612000D01*
X172774000Y-110608000D01*
X172771000Y-110604000D01*
X172767000Y-110601000D01*
X172763000Y-110597000D01*
X172759000Y-110594000D01*
X172754000Y-110591000D01*
X172750000Y-110588000D01*
X172745000Y-110586000D01*
X172741000Y-110584000D01*
X172736000Y-110582000D01*
X172731000Y-110580000D01*
X172726000Y-110578000D01*
X172721000Y-110577000D01*
X172716000Y-110576000D01*
X172710000Y-110576000D01*
X172705000Y-110575000D01*
X172700000Y-110575000D01*
G36*
X172710000Y-110576000D02*
G01*
X172716000Y-110576000D01*
X172721000Y-110577000D01*
X172726000Y-110578000D01*
X172731000Y-110580000D01*
X172736000Y-110582000D01*
X172741000Y-110584000D01*
X172745000Y-110586000D01*
X172750000Y-110588000D01*
X172754000Y-110591000D01*
X172759000Y-110594000D01*
X172763000Y-110597000D01*
X172767000Y-110601000D01*
X172771000Y-110604000D01*
X172774000Y-110608000D01*
X172778000Y-110612000D01*
X172781000Y-110616000D01*
X172784000Y-110621000D01*
X172787000Y-110625000D01*
X172789000Y-110630000D01*
X172791000Y-110634000D01*
X172793000Y-110639000D01*
X172795000Y-110644000D01*
X172797000Y-110649000D01*
X172798000Y-110654000D01*
X172799000Y-110659000D01*
X172799000Y-110665000D01*
X172800000Y-110670000D01*
X172800000Y-110675000D01*
X172800000Y-110825000D01*
X172800000Y-110830000D01*
X172799000Y-110835000D01*
X172799000Y-110841000D01*
X172798000Y-110846000D01*
X172797000Y-110851000D01*
X172795000Y-110856000D01*
X172793000Y-110861000D01*
X172791000Y-110866000D01*
X172789000Y-110870000D01*
X172787000Y-110875000D01*
X172784000Y-110879000D01*
X172781000Y-110884000D01*
X172778000Y-110888000D01*
X172774000Y-110892000D01*
X172771000Y-110896000D01*
X172767000Y-110899000D01*
X172763000Y-110903000D01*
X172759000Y-110906000D01*
X172754000Y-110909000D01*
X172750000Y-110912000D01*
X172745000Y-110914000D01*
X172741000Y-110916000D01*
X172736000Y-110918000D01*
X172731000Y-110920000D01*
X172726000Y-110922000D01*
X172721000Y-110923000D01*
X172716000Y-110924000D01*
X172710000Y-110924000D01*
X172705000Y-110925000D01*
X172700000Y-110925000D01*
X172200000Y-110925000D01*
X172195000Y-110925000D01*
X172190000Y-110924000D01*
X172184000Y-110924000D01*
X172179000Y-110923000D01*
X172174000Y-110922000D01*
X172169000Y-110920000D01*
X172164000Y-110918000D01*
X172159000Y-110916000D01*
X172155000Y-110914000D01*
X172150000Y-110912000D01*
X172146000Y-110909000D01*
X172141000Y-110906000D01*
X172137000Y-110903000D01*
X172133000Y-110899000D01*
X172129000Y-110896000D01*
X172126000Y-110892000D01*
X172122000Y-110888000D01*
X172119000Y-110884000D01*
X172116000Y-110879000D01*
X172113000Y-110875000D01*
X172111000Y-110870000D01*
X172109000Y-110866000D01*
X172107000Y-110861000D01*
X172105000Y-110856000D01*
X172103000Y-110851000D01*
X172102000Y-110846000D01*
X172101000Y-110841000D01*
X172101000Y-110835000D01*
X172100000Y-110830000D01*
X172100000Y-110825000D01*
X172100000Y-110675000D01*
X172100000Y-110670000D01*
X172101000Y-110665000D01*
X172101000Y-110659000D01*
X172102000Y-110654000D01*
X172103000Y-110649000D01*
X172105000Y-110644000D01*
X172107000Y-110639000D01*
X172109000Y-110634000D01*
X172111000Y-110630000D01*
X172113000Y-110625000D01*
X172116000Y-110621000D01*
X172119000Y-110616000D01*
X172122000Y-110612000D01*
X172126000Y-110608000D01*
X172129000Y-110604000D01*
X172133000Y-110601000D01*
X172137000Y-110597000D01*
X172141000Y-110594000D01*
X172146000Y-110591000D01*
X172150000Y-110588000D01*
X172155000Y-110586000D01*
X172159000Y-110584000D01*
X172164000Y-110582000D01*
X172169000Y-110580000D01*
X172174000Y-110578000D01*
X172179000Y-110577000D01*
X172184000Y-110576000D01*
X172190000Y-110576000D01*
X172195000Y-110575000D01*
X172200000Y-110575000D01*
X172700000Y-110575000D01*
X172705000Y-110575000D01*
X172710000Y-110576000D01*
G37*
X173275000Y-110075000D02*
X173275000Y-109575000D01*
X173275000Y-109570000D01*
X173274000Y-109565000D01*
X173274000Y-109559000D01*
X173273000Y-109554000D01*
X173272000Y-109549000D01*
X173270000Y-109544000D01*
X173268000Y-109539000D01*
X173266000Y-109534000D01*
X173264000Y-109530000D01*
X173262000Y-109525000D01*
X173259000Y-109521000D01*
X173256000Y-109516000D01*
X173253000Y-109512000D01*
X173249000Y-109508000D01*
X173246000Y-109504000D01*
X173242000Y-109501000D01*
X173238000Y-109497000D01*
X173234000Y-109494000D01*
X173229000Y-109491000D01*
X173225000Y-109488000D01*
X173220000Y-109486000D01*
X173216000Y-109484000D01*
X173211000Y-109482000D01*
X173206000Y-109480000D01*
X173201000Y-109478000D01*
X173196000Y-109477000D01*
X173191000Y-109476000D01*
X173185000Y-109476000D01*
X173180000Y-109475000D01*
X173175000Y-109475000D01*
X173025000Y-109475000D01*
X173020000Y-109475000D01*
X173015000Y-109476000D01*
X173009000Y-109476000D01*
X173004000Y-109477000D01*
X172999000Y-109478000D01*
X172994000Y-109480000D01*
X172989000Y-109482000D01*
X172984000Y-109484000D01*
X172980000Y-109486000D01*
X172975000Y-109488000D01*
X172971000Y-109491000D01*
X172966000Y-109494000D01*
X172962000Y-109497000D01*
X172958000Y-109501000D01*
X172954000Y-109504000D01*
X172951000Y-109508000D01*
X172947000Y-109512000D01*
X172944000Y-109516000D01*
X172941000Y-109521000D01*
X172938000Y-109525000D01*
X172936000Y-109530000D01*
X172934000Y-109534000D01*
X172932000Y-109539000D01*
X172930000Y-109544000D01*
X172928000Y-109549000D01*
X172927000Y-109554000D01*
X172926000Y-109559000D01*
X172926000Y-109565000D01*
X172925000Y-109570000D01*
X172925000Y-109575000D01*
X172925000Y-110075000D01*
X172925000Y-110080000D01*
X172926000Y-110085000D01*
X172926000Y-110091000D01*
X172927000Y-110096000D01*
X172928000Y-110101000D01*
X172930000Y-110106000D01*
X172932000Y-110111000D01*
X172934000Y-110116000D01*
X172936000Y-110120000D01*
X172938000Y-110125000D01*
X172941000Y-110129000D01*
X172944000Y-110134000D01*
X172947000Y-110138000D01*
X172951000Y-110142000D01*
X172954000Y-110146000D01*
X172958000Y-110149000D01*
X172962000Y-110153000D01*
X172966000Y-110156000D01*
X172971000Y-110159000D01*
X172975000Y-110162000D01*
X172980000Y-110164000D01*
X172984000Y-110166000D01*
X172989000Y-110168000D01*
X172994000Y-110170000D01*
X172999000Y-110172000D01*
X173004000Y-110173000D01*
X173009000Y-110174000D01*
X173015000Y-110174000D01*
X173020000Y-110175000D01*
X173025000Y-110175000D01*
X173175000Y-110175000D01*
X173180000Y-110175000D01*
X173185000Y-110174000D01*
X173191000Y-110174000D01*
X173196000Y-110173000D01*
X173201000Y-110172000D01*
X173206000Y-110170000D01*
X173211000Y-110168000D01*
X173216000Y-110166000D01*
X173220000Y-110164000D01*
X173225000Y-110162000D01*
X173229000Y-110159000D01*
X173234000Y-110156000D01*
X173238000Y-110153000D01*
X173242000Y-110149000D01*
X173246000Y-110146000D01*
X173249000Y-110142000D01*
X173253000Y-110138000D01*
X173256000Y-110134000D01*
X173259000Y-110129000D01*
X173262000Y-110125000D01*
X173264000Y-110120000D01*
X173266000Y-110116000D01*
X173268000Y-110111000D01*
X173270000Y-110106000D01*
X173272000Y-110101000D01*
X173273000Y-110096000D01*
X173274000Y-110091000D01*
X173274000Y-110085000D01*
X173275000Y-110080000D01*
X173275000Y-110075000D01*
G36*
X173185000Y-109476000D02*
G01*
X173191000Y-109476000D01*
X173196000Y-109477000D01*
X173201000Y-109478000D01*
X173206000Y-109480000D01*
X173211000Y-109482000D01*
X173216000Y-109484000D01*
X173220000Y-109486000D01*
X173225000Y-109488000D01*
X173229000Y-109491000D01*
X173234000Y-109494000D01*
X173238000Y-109497000D01*
X173242000Y-109501000D01*
X173246000Y-109504000D01*
X173249000Y-109508000D01*
X173253000Y-109512000D01*
X173256000Y-109516000D01*
X173259000Y-109521000D01*
X173262000Y-109525000D01*
X173264000Y-109530000D01*
X173266000Y-109534000D01*
X173268000Y-109539000D01*
X173270000Y-109544000D01*
X173272000Y-109549000D01*
X173273000Y-109554000D01*
X173274000Y-109559000D01*
X173274000Y-109565000D01*
X173275000Y-109570000D01*
X173275000Y-109575000D01*
X173275000Y-110075000D01*
X173275000Y-110080000D01*
X173274000Y-110085000D01*
X173274000Y-110091000D01*
X173273000Y-110096000D01*
X173272000Y-110101000D01*
X173270000Y-110106000D01*
X173268000Y-110111000D01*
X173266000Y-110116000D01*
X173264000Y-110120000D01*
X173262000Y-110125000D01*
X173259000Y-110129000D01*
X173256000Y-110134000D01*
X173253000Y-110138000D01*
X173249000Y-110142000D01*
X173246000Y-110146000D01*
X173242000Y-110149000D01*
X173238000Y-110153000D01*
X173234000Y-110156000D01*
X173229000Y-110159000D01*
X173225000Y-110162000D01*
X173220000Y-110164000D01*
X173216000Y-110166000D01*
X173211000Y-110168000D01*
X173206000Y-110170000D01*
X173201000Y-110172000D01*
X173196000Y-110173000D01*
X173191000Y-110174000D01*
X173185000Y-110174000D01*
X173180000Y-110175000D01*
X173175000Y-110175000D01*
X173025000Y-110175000D01*
X173020000Y-110175000D01*
X173015000Y-110174000D01*
X173009000Y-110174000D01*
X173004000Y-110173000D01*
X172999000Y-110172000D01*
X172994000Y-110170000D01*
X172989000Y-110168000D01*
X172984000Y-110166000D01*
X172980000Y-110164000D01*
X172975000Y-110162000D01*
X172971000Y-110159000D01*
X172966000Y-110156000D01*
X172962000Y-110153000D01*
X172958000Y-110149000D01*
X172954000Y-110146000D01*
X172951000Y-110142000D01*
X172947000Y-110138000D01*
X172944000Y-110134000D01*
X172941000Y-110129000D01*
X172938000Y-110125000D01*
X172936000Y-110120000D01*
X172934000Y-110116000D01*
X172932000Y-110111000D01*
X172930000Y-110106000D01*
X172928000Y-110101000D01*
X172927000Y-110096000D01*
X172926000Y-110091000D01*
X172926000Y-110085000D01*
X172925000Y-110080000D01*
X172925000Y-110075000D01*
X172925000Y-109575000D01*
X172925000Y-109570000D01*
X172926000Y-109565000D01*
X172926000Y-109559000D01*
X172927000Y-109554000D01*
X172928000Y-109549000D01*
X172930000Y-109544000D01*
X172932000Y-109539000D01*
X172934000Y-109534000D01*
X172936000Y-109530000D01*
X172938000Y-109525000D01*
X172941000Y-109521000D01*
X172944000Y-109516000D01*
X172947000Y-109512000D01*
X172951000Y-109508000D01*
X172954000Y-109504000D01*
X172958000Y-109501000D01*
X172962000Y-109497000D01*
X172966000Y-109494000D01*
X172971000Y-109491000D01*
X172975000Y-109488000D01*
X172980000Y-109486000D01*
X172984000Y-109484000D01*
X172989000Y-109482000D01*
X172994000Y-109480000D01*
X172999000Y-109478000D01*
X173004000Y-109477000D01*
X173009000Y-109476000D01*
X173015000Y-109476000D01*
X173020000Y-109475000D01*
X173025000Y-109475000D01*
X173175000Y-109475000D01*
X173180000Y-109475000D01*
X173185000Y-109476000D01*
G37*
X173425000Y-111075000D02*
X173275000Y-111075000D01*
X173272000Y-111075000D01*
X173270000Y-111075000D01*
X173267000Y-111076000D01*
X173265000Y-111076000D01*
X173262000Y-111077000D01*
X173260000Y-111077000D01*
X173257000Y-111078000D01*
X173255000Y-111079000D01*
X173252000Y-111080000D01*
X173250000Y-111082000D01*
X173248000Y-111083000D01*
X173246000Y-111085000D01*
X173244000Y-111086000D01*
X173242000Y-111088000D01*
X173240000Y-111090000D01*
X173238000Y-111092000D01*
X173236000Y-111094000D01*
X173235000Y-111096000D01*
X173233000Y-111098000D01*
X173232000Y-111100000D01*
X173230000Y-111102000D01*
X173229000Y-111105000D01*
X173228000Y-111107000D01*
X173227000Y-111110000D01*
X173227000Y-111112000D01*
X173226000Y-111115000D01*
X173226000Y-111117000D01*
X173225000Y-111120000D01*
X173225000Y-111122000D01*
X173225000Y-111125000D01*
X173225000Y-112375000D01*
X173225000Y-112378000D01*
X173225000Y-112380000D01*
X173226000Y-112383000D01*
X173226000Y-112385000D01*
X173227000Y-112388000D01*
X173227000Y-112390000D01*
X173228000Y-112393000D01*
X173229000Y-112395000D01*
X173230000Y-112398000D01*
X173232000Y-112400000D01*
X173233000Y-112402000D01*
X173235000Y-112404000D01*
X173236000Y-112406000D01*
X173238000Y-112408000D01*
X173240000Y-112410000D01*
X173242000Y-112412000D01*
X173244000Y-112414000D01*
X173246000Y-112415000D01*
X173248000Y-112417000D01*
X173250000Y-112418000D01*
X173252000Y-112420000D01*
X173255000Y-112421000D01*
X173257000Y-112422000D01*
X173260000Y-112423000D01*
X173262000Y-112423000D01*
X173265000Y-112424000D01*
X173267000Y-112424000D01*
X173270000Y-112425000D01*
X173272000Y-112425000D01*
X173275000Y-112425000D01*
X173425000Y-112425000D01*
X173428000Y-112425000D01*
X173430000Y-112425000D01*
X173433000Y-112424000D01*
X173435000Y-112424000D01*
X173438000Y-112423000D01*
X173440000Y-112423000D01*
X173443000Y-112422000D01*
X173445000Y-112421000D01*
X173448000Y-112420000D01*
X173450000Y-112418000D01*
X173452000Y-112417000D01*
X173454000Y-112415000D01*
X173456000Y-112414000D01*
X173458000Y-112412000D01*
X173460000Y-112410000D01*
X173462000Y-112408000D01*
X173464000Y-112406000D01*
X173465000Y-112404000D01*
X173467000Y-112402000D01*
X173468000Y-112400000D01*
X173470000Y-112398000D01*
X173471000Y-112395000D01*
X173472000Y-112393000D01*
X173473000Y-112390000D01*
X173473000Y-112388000D01*
X173474000Y-112385000D01*
X173474000Y-112383000D01*
X173475000Y-112380000D01*
X173475000Y-112378000D01*
X173475000Y-112375000D01*
X173475000Y-111125000D01*
X173475000Y-111122000D01*
X173475000Y-111120000D01*
X173474000Y-111117000D01*
X173474000Y-111115000D01*
X173473000Y-111112000D01*
X173473000Y-111110000D01*
X173472000Y-111107000D01*
X173471000Y-111105000D01*
X173470000Y-111102000D01*
X173468000Y-111100000D01*
X173467000Y-111098000D01*
X173465000Y-111096000D01*
X173464000Y-111094000D01*
X173462000Y-111092000D01*
X173460000Y-111090000D01*
X173458000Y-111088000D01*
X173456000Y-111086000D01*
X173454000Y-111085000D01*
X173452000Y-111083000D01*
X173450000Y-111082000D01*
X173448000Y-111080000D01*
X173445000Y-111079000D01*
X173443000Y-111078000D01*
X173440000Y-111077000D01*
X173438000Y-111077000D01*
X173435000Y-111076000D01*
X173433000Y-111076000D01*
X173430000Y-111075000D01*
X173428000Y-111075000D01*
X173425000Y-111075000D01*
G36*
X173433000Y-111076000D02*
G01*
X173435000Y-111076000D01*
X173438000Y-111077000D01*
X173440000Y-111077000D01*
X173443000Y-111078000D01*
X173445000Y-111079000D01*
X173448000Y-111080000D01*
X173450000Y-111082000D01*
X173452000Y-111083000D01*
X173454000Y-111085000D01*
X173456000Y-111086000D01*
X173458000Y-111088000D01*
X173460000Y-111090000D01*
X173462000Y-111092000D01*
X173464000Y-111094000D01*
X173465000Y-111096000D01*
X173467000Y-111098000D01*
X173468000Y-111100000D01*
X173470000Y-111102000D01*
X173471000Y-111105000D01*
X173472000Y-111107000D01*
X173473000Y-111110000D01*
X173473000Y-111112000D01*
X173474000Y-111115000D01*
X173474000Y-111117000D01*
X173475000Y-111120000D01*
X173475000Y-111122000D01*
X173475000Y-111125000D01*
X173475000Y-112375000D01*
X173475000Y-112378000D01*
X173475000Y-112380000D01*
X173474000Y-112383000D01*
X173474000Y-112385000D01*
X173473000Y-112388000D01*
X173473000Y-112390000D01*
X173472000Y-112393000D01*
X173471000Y-112395000D01*
X173470000Y-112398000D01*
X173468000Y-112400000D01*
X173467000Y-112402000D01*
X173465000Y-112404000D01*
X173464000Y-112406000D01*
X173462000Y-112408000D01*
X173460000Y-112410000D01*
X173458000Y-112412000D01*
X173456000Y-112414000D01*
X173454000Y-112415000D01*
X173452000Y-112417000D01*
X173450000Y-112418000D01*
X173448000Y-112420000D01*
X173445000Y-112421000D01*
X173443000Y-112422000D01*
X173440000Y-112423000D01*
X173438000Y-112423000D01*
X173435000Y-112424000D01*
X173433000Y-112424000D01*
X173430000Y-112425000D01*
X173428000Y-112425000D01*
X173425000Y-112425000D01*
X173275000Y-112425000D01*
X173272000Y-112425000D01*
X173270000Y-112425000D01*
X173267000Y-112424000D01*
X173265000Y-112424000D01*
X173262000Y-112423000D01*
X173260000Y-112423000D01*
X173257000Y-112422000D01*
X173255000Y-112421000D01*
X173252000Y-112420000D01*
X173250000Y-112418000D01*
X173248000Y-112417000D01*
X173246000Y-112415000D01*
X173244000Y-112414000D01*
X173242000Y-112412000D01*
X173240000Y-112410000D01*
X173238000Y-112408000D01*
X173236000Y-112406000D01*
X173235000Y-112404000D01*
X173233000Y-112402000D01*
X173232000Y-112400000D01*
X173230000Y-112398000D01*
X173229000Y-112395000D01*
X173228000Y-112393000D01*
X173227000Y-112390000D01*
X173227000Y-112388000D01*
X173226000Y-112385000D01*
X173226000Y-112383000D01*
X173225000Y-112380000D01*
X173225000Y-112378000D01*
X173225000Y-112375000D01*
X173225000Y-111125000D01*
X173225000Y-111122000D01*
X173225000Y-111120000D01*
X173226000Y-111117000D01*
X173226000Y-111115000D01*
X173227000Y-111112000D01*
X173227000Y-111110000D01*
X173228000Y-111107000D01*
X173229000Y-111105000D01*
X173230000Y-111102000D01*
X173232000Y-111100000D01*
X173233000Y-111098000D01*
X173235000Y-111096000D01*
X173236000Y-111094000D01*
X173238000Y-111092000D01*
X173240000Y-111090000D01*
X173242000Y-111088000D01*
X173244000Y-111086000D01*
X173246000Y-111085000D01*
X173248000Y-111083000D01*
X173250000Y-111082000D01*
X173252000Y-111080000D01*
X173255000Y-111079000D01*
X173257000Y-111078000D01*
X173260000Y-111077000D01*
X173262000Y-111077000D01*
X173265000Y-111076000D01*
X173267000Y-111076000D01*
X173270000Y-111075000D01*
X173272000Y-111075000D01*
X173275000Y-111075000D01*
X173425000Y-111075000D01*
X173428000Y-111075000D01*
X173430000Y-111075000D01*
X173433000Y-111076000D01*
G37*
X173775000Y-110075000D02*
X173775000Y-109575000D01*
X173775000Y-109570000D01*
X173774000Y-109565000D01*
X173774000Y-109559000D01*
X173773000Y-109554000D01*
X173772000Y-109549000D01*
X173770000Y-109544000D01*
X173768000Y-109539000D01*
X173766000Y-109534000D01*
X173764000Y-109530000D01*
X173762000Y-109525000D01*
X173759000Y-109521000D01*
X173756000Y-109516000D01*
X173753000Y-109512000D01*
X173749000Y-109508000D01*
X173746000Y-109504000D01*
X173742000Y-109501000D01*
X173738000Y-109497000D01*
X173734000Y-109494000D01*
X173729000Y-109491000D01*
X173725000Y-109488000D01*
X173720000Y-109486000D01*
X173716000Y-109484000D01*
X173711000Y-109482000D01*
X173706000Y-109480000D01*
X173701000Y-109478000D01*
X173696000Y-109477000D01*
X173691000Y-109476000D01*
X173685000Y-109476000D01*
X173680000Y-109475000D01*
X173675000Y-109475000D01*
X173525000Y-109475000D01*
X173520000Y-109475000D01*
X173515000Y-109476000D01*
X173509000Y-109476000D01*
X173504000Y-109477000D01*
X173499000Y-109478000D01*
X173494000Y-109480000D01*
X173489000Y-109482000D01*
X173484000Y-109484000D01*
X173480000Y-109486000D01*
X173475000Y-109488000D01*
X173471000Y-109491000D01*
X173466000Y-109494000D01*
X173462000Y-109497000D01*
X173458000Y-109501000D01*
X173454000Y-109504000D01*
X173451000Y-109508000D01*
X173447000Y-109512000D01*
X173444000Y-109516000D01*
X173441000Y-109521000D01*
X173438000Y-109525000D01*
X173436000Y-109530000D01*
X173434000Y-109534000D01*
X173432000Y-109539000D01*
X173430000Y-109544000D01*
X173428000Y-109549000D01*
X173427000Y-109554000D01*
X173426000Y-109559000D01*
X173426000Y-109565000D01*
X173425000Y-109570000D01*
X173425000Y-109575000D01*
X173425000Y-110075000D01*
X173425000Y-110080000D01*
X173426000Y-110085000D01*
X173426000Y-110091000D01*
X173427000Y-110096000D01*
X173428000Y-110101000D01*
X173430000Y-110106000D01*
X173432000Y-110111000D01*
X173434000Y-110116000D01*
X173436000Y-110120000D01*
X173438000Y-110125000D01*
X173441000Y-110129000D01*
X173444000Y-110134000D01*
X173447000Y-110138000D01*
X173451000Y-110142000D01*
X173454000Y-110146000D01*
X173458000Y-110149000D01*
X173462000Y-110153000D01*
X173466000Y-110156000D01*
X173471000Y-110159000D01*
X173475000Y-110162000D01*
X173480000Y-110164000D01*
X173484000Y-110166000D01*
X173489000Y-110168000D01*
X173494000Y-110170000D01*
X173499000Y-110172000D01*
X173504000Y-110173000D01*
X173509000Y-110174000D01*
X173515000Y-110174000D01*
X173520000Y-110175000D01*
X173525000Y-110175000D01*
X173675000Y-110175000D01*
X173680000Y-110175000D01*
X173685000Y-110174000D01*
X173691000Y-110174000D01*
X173696000Y-110173000D01*
X173701000Y-110172000D01*
X173706000Y-110170000D01*
X173711000Y-110168000D01*
X173716000Y-110166000D01*
X173720000Y-110164000D01*
X173725000Y-110162000D01*
X173729000Y-110159000D01*
X173734000Y-110156000D01*
X173738000Y-110153000D01*
X173742000Y-110149000D01*
X173746000Y-110146000D01*
X173749000Y-110142000D01*
X173753000Y-110138000D01*
X173756000Y-110134000D01*
X173759000Y-110129000D01*
X173762000Y-110125000D01*
X173764000Y-110120000D01*
X173766000Y-110116000D01*
X173768000Y-110111000D01*
X173770000Y-110106000D01*
X173772000Y-110101000D01*
X173773000Y-110096000D01*
X173774000Y-110091000D01*
X173774000Y-110085000D01*
X173775000Y-110080000D01*
X173775000Y-110075000D01*
G36*
X173685000Y-109476000D02*
G01*
X173691000Y-109476000D01*
X173696000Y-109477000D01*
X173701000Y-109478000D01*
X173706000Y-109480000D01*
X173711000Y-109482000D01*
X173716000Y-109484000D01*
X173720000Y-109486000D01*
X173725000Y-109488000D01*
X173729000Y-109491000D01*
X173734000Y-109494000D01*
X173738000Y-109497000D01*
X173742000Y-109501000D01*
X173746000Y-109504000D01*
X173749000Y-109508000D01*
X173753000Y-109512000D01*
X173756000Y-109516000D01*
X173759000Y-109521000D01*
X173762000Y-109525000D01*
X173764000Y-109530000D01*
X173766000Y-109534000D01*
X173768000Y-109539000D01*
X173770000Y-109544000D01*
X173772000Y-109549000D01*
X173773000Y-109554000D01*
X173774000Y-109559000D01*
X173774000Y-109565000D01*
X173775000Y-109570000D01*
X173775000Y-109575000D01*
X173775000Y-110075000D01*
X173775000Y-110080000D01*
X173774000Y-110085000D01*
X173774000Y-110091000D01*
X173773000Y-110096000D01*
X173772000Y-110101000D01*
X173770000Y-110106000D01*
X173768000Y-110111000D01*
X173766000Y-110116000D01*
X173764000Y-110120000D01*
X173762000Y-110125000D01*
X173759000Y-110129000D01*
X173756000Y-110134000D01*
X173753000Y-110138000D01*
X173749000Y-110142000D01*
X173746000Y-110146000D01*
X173742000Y-110149000D01*
X173738000Y-110153000D01*
X173734000Y-110156000D01*
X173729000Y-110159000D01*
X173725000Y-110162000D01*
X173720000Y-110164000D01*
X173716000Y-110166000D01*
X173711000Y-110168000D01*
X173706000Y-110170000D01*
X173701000Y-110172000D01*
X173696000Y-110173000D01*
X173691000Y-110174000D01*
X173685000Y-110174000D01*
X173680000Y-110175000D01*
X173675000Y-110175000D01*
X173525000Y-110175000D01*
X173520000Y-110175000D01*
X173515000Y-110174000D01*
X173509000Y-110174000D01*
X173504000Y-110173000D01*
X173499000Y-110172000D01*
X173494000Y-110170000D01*
X173489000Y-110168000D01*
X173484000Y-110166000D01*
X173480000Y-110164000D01*
X173475000Y-110162000D01*
X173471000Y-110159000D01*
X173466000Y-110156000D01*
X173462000Y-110153000D01*
X173458000Y-110149000D01*
X173454000Y-110146000D01*
X173451000Y-110142000D01*
X173447000Y-110138000D01*
X173444000Y-110134000D01*
X173441000Y-110129000D01*
X173438000Y-110125000D01*
X173436000Y-110120000D01*
X173434000Y-110116000D01*
X173432000Y-110111000D01*
X173430000Y-110106000D01*
X173428000Y-110101000D01*
X173427000Y-110096000D01*
X173426000Y-110091000D01*
X173426000Y-110085000D01*
X173425000Y-110080000D01*
X173425000Y-110075000D01*
X173425000Y-109575000D01*
X173425000Y-109570000D01*
X173426000Y-109565000D01*
X173426000Y-109559000D01*
X173427000Y-109554000D01*
X173428000Y-109549000D01*
X173430000Y-109544000D01*
X173432000Y-109539000D01*
X173434000Y-109534000D01*
X173436000Y-109530000D01*
X173438000Y-109525000D01*
X173441000Y-109521000D01*
X173444000Y-109516000D01*
X173447000Y-109512000D01*
X173451000Y-109508000D01*
X173454000Y-109504000D01*
X173458000Y-109501000D01*
X173462000Y-109497000D01*
X173466000Y-109494000D01*
X173471000Y-109491000D01*
X173475000Y-109488000D01*
X173480000Y-109486000D01*
X173484000Y-109484000D01*
X173489000Y-109482000D01*
X173494000Y-109480000D01*
X173499000Y-109478000D01*
X173504000Y-109477000D01*
X173509000Y-109476000D01*
X173515000Y-109476000D01*
X173520000Y-109475000D01*
X173525000Y-109475000D01*
X173675000Y-109475000D01*
X173680000Y-109475000D01*
X173685000Y-109476000D01*
G37*
X173925000Y-110725000D02*
X173775000Y-110725000D01*
X173772000Y-110725000D01*
X173770000Y-110725000D01*
X173767000Y-110726000D01*
X173765000Y-110726000D01*
X173762000Y-110727000D01*
X173760000Y-110727000D01*
X173757000Y-110728000D01*
X173755000Y-110729000D01*
X173752000Y-110730000D01*
X173750000Y-110732000D01*
X173748000Y-110733000D01*
X173746000Y-110735000D01*
X173744000Y-110736000D01*
X173742000Y-110738000D01*
X173740000Y-110740000D01*
X173738000Y-110742000D01*
X173736000Y-110744000D01*
X173735000Y-110746000D01*
X173733000Y-110748000D01*
X173732000Y-110750000D01*
X173730000Y-110752000D01*
X173729000Y-110755000D01*
X173728000Y-110757000D01*
X173727000Y-110760000D01*
X173727000Y-110762000D01*
X173726000Y-110765000D01*
X173726000Y-110767000D01*
X173725000Y-110770000D01*
X173725000Y-110772000D01*
X173725000Y-110775000D01*
X173725000Y-112375000D01*
X173725000Y-112378000D01*
X173725000Y-112380000D01*
X173726000Y-112383000D01*
X173726000Y-112385000D01*
X173727000Y-112388000D01*
X173727000Y-112390000D01*
X173728000Y-112393000D01*
X173729000Y-112395000D01*
X173730000Y-112398000D01*
X173732000Y-112400000D01*
X173733000Y-112402000D01*
X173735000Y-112404000D01*
X173736000Y-112406000D01*
X173738000Y-112408000D01*
X173740000Y-112410000D01*
X173742000Y-112412000D01*
X173744000Y-112414000D01*
X173746000Y-112415000D01*
X173748000Y-112417000D01*
X173750000Y-112418000D01*
X173752000Y-112420000D01*
X173755000Y-112421000D01*
X173757000Y-112422000D01*
X173760000Y-112423000D01*
X173762000Y-112423000D01*
X173765000Y-112424000D01*
X173767000Y-112424000D01*
X173770000Y-112425000D01*
X173772000Y-112425000D01*
X173775000Y-112425000D01*
X173925000Y-112425000D01*
X173928000Y-112425000D01*
X173930000Y-112425000D01*
X173933000Y-112424000D01*
X173935000Y-112424000D01*
X173938000Y-112423000D01*
X173940000Y-112423000D01*
X173943000Y-112422000D01*
X173945000Y-112421000D01*
X173948000Y-112420000D01*
X173950000Y-112418000D01*
X173952000Y-112417000D01*
X173954000Y-112415000D01*
X173956000Y-112414000D01*
X173958000Y-112412000D01*
X173960000Y-112410000D01*
X173962000Y-112408000D01*
X173964000Y-112406000D01*
X173965000Y-112404000D01*
X173967000Y-112402000D01*
X173968000Y-112400000D01*
X173970000Y-112398000D01*
X173971000Y-112395000D01*
X173972000Y-112393000D01*
X173973000Y-112390000D01*
X173973000Y-112388000D01*
X173974000Y-112385000D01*
X173974000Y-112383000D01*
X173975000Y-112380000D01*
X173975000Y-112378000D01*
X173975000Y-112375000D01*
X173975000Y-110775000D01*
X173975000Y-110772000D01*
X173975000Y-110770000D01*
X173974000Y-110767000D01*
X173974000Y-110765000D01*
X173973000Y-110762000D01*
X173973000Y-110760000D01*
X173972000Y-110757000D01*
X173971000Y-110755000D01*
X173970000Y-110752000D01*
X173968000Y-110750000D01*
X173967000Y-110748000D01*
X173965000Y-110746000D01*
X173964000Y-110744000D01*
X173962000Y-110742000D01*
X173960000Y-110740000D01*
X173958000Y-110738000D01*
X173956000Y-110736000D01*
X173954000Y-110735000D01*
X173952000Y-110733000D01*
X173950000Y-110732000D01*
X173948000Y-110730000D01*
X173945000Y-110729000D01*
X173943000Y-110728000D01*
X173940000Y-110727000D01*
X173938000Y-110727000D01*
X173935000Y-110726000D01*
X173933000Y-110726000D01*
X173930000Y-110725000D01*
X173928000Y-110725000D01*
X173925000Y-110725000D01*
G36*
X173933000Y-110726000D02*
G01*
X173935000Y-110726000D01*
X173938000Y-110727000D01*
X173940000Y-110727000D01*
X173943000Y-110728000D01*
X173945000Y-110729000D01*
X173948000Y-110730000D01*
X173950000Y-110732000D01*
X173952000Y-110733000D01*
X173954000Y-110735000D01*
X173956000Y-110736000D01*
X173958000Y-110738000D01*
X173960000Y-110740000D01*
X173962000Y-110742000D01*
X173964000Y-110744000D01*
X173965000Y-110746000D01*
X173967000Y-110748000D01*
X173968000Y-110750000D01*
X173970000Y-110752000D01*
X173971000Y-110755000D01*
X173972000Y-110757000D01*
X173973000Y-110760000D01*
X173973000Y-110762000D01*
X173974000Y-110765000D01*
X173974000Y-110767000D01*
X173975000Y-110770000D01*
X173975000Y-110772000D01*
X173975000Y-110775000D01*
X173975000Y-112375000D01*
X173975000Y-112378000D01*
X173975000Y-112380000D01*
X173974000Y-112383000D01*
X173974000Y-112385000D01*
X173973000Y-112388000D01*
X173973000Y-112390000D01*
X173972000Y-112393000D01*
X173971000Y-112395000D01*
X173970000Y-112398000D01*
X173968000Y-112400000D01*
X173967000Y-112402000D01*
X173965000Y-112404000D01*
X173964000Y-112406000D01*
X173962000Y-112408000D01*
X173960000Y-112410000D01*
X173958000Y-112412000D01*
X173956000Y-112414000D01*
X173954000Y-112415000D01*
X173952000Y-112417000D01*
X173950000Y-112418000D01*
X173948000Y-112420000D01*
X173945000Y-112421000D01*
X173943000Y-112422000D01*
X173940000Y-112423000D01*
X173938000Y-112423000D01*
X173935000Y-112424000D01*
X173933000Y-112424000D01*
X173930000Y-112425000D01*
X173928000Y-112425000D01*
X173925000Y-112425000D01*
X173775000Y-112425000D01*
X173772000Y-112425000D01*
X173770000Y-112425000D01*
X173767000Y-112424000D01*
X173765000Y-112424000D01*
X173762000Y-112423000D01*
X173760000Y-112423000D01*
X173757000Y-112422000D01*
X173755000Y-112421000D01*
X173752000Y-112420000D01*
X173750000Y-112418000D01*
X173748000Y-112417000D01*
X173746000Y-112415000D01*
X173744000Y-112414000D01*
X173742000Y-112412000D01*
X173740000Y-112410000D01*
X173738000Y-112408000D01*
X173736000Y-112406000D01*
X173735000Y-112404000D01*
X173733000Y-112402000D01*
X173732000Y-112400000D01*
X173730000Y-112398000D01*
X173729000Y-112395000D01*
X173728000Y-112393000D01*
X173727000Y-112390000D01*
X173727000Y-112388000D01*
X173726000Y-112385000D01*
X173726000Y-112383000D01*
X173725000Y-112380000D01*
X173725000Y-112378000D01*
X173725000Y-112375000D01*
X173725000Y-110775000D01*
X173725000Y-110772000D01*
X173725000Y-110770000D01*
X173726000Y-110767000D01*
X173726000Y-110765000D01*
X173727000Y-110762000D01*
X173727000Y-110760000D01*
X173728000Y-110757000D01*
X173729000Y-110755000D01*
X173730000Y-110752000D01*
X173732000Y-110750000D01*
X173733000Y-110748000D01*
X173735000Y-110746000D01*
X173736000Y-110744000D01*
X173738000Y-110742000D01*
X173740000Y-110740000D01*
X173742000Y-110738000D01*
X173744000Y-110736000D01*
X173746000Y-110735000D01*
X173748000Y-110733000D01*
X173750000Y-110732000D01*
X173752000Y-110730000D01*
X173755000Y-110729000D01*
X173757000Y-110728000D01*
X173760000Y-110727000D01*
X173762000Y-110727000D01*
X173765000Y-110726000D01*
X173767000Y-110726000D01*
X173770000Y-110725000D01*
X173772000Y-110725000D01*
X173775000Y-110725000D01*
X173925000Y-110725000D01*
X173928000Y-110725000D01*
X173930000Y-110725000D01*
X173933000Y-110726000D01*
G37*
X174275000Y-110075000D02*
X174275000Y-109575000D01*
X174275000Y-109570000D01*
X174274000Y-109565000D01*
X174274000Y-109559000D01*
X174273000Y-109554000D01*
X174272000Y-109549000D01*
X174270000Y-109544000D01*
X174268000Y-109539000D01*
X174266000Y-109534000D01*
X174264000Y-109530000D01*
X174262000Y-109525000D01*
X174259000Y-109521000D01*
X174256000Y-109516000D01*
X174253000Y-109512000D01*
X174249000Y-109508000D01*
X174246000Y-109504000D01*
X174242000Y-109501000D01*
X174238000Y-109497000D01*
X174234000Y-109494000D01*
X174229000Y-109491000D01*
X174225000Y-109488000D01*
X174220000Y-109486000D01*
X174216000Y-109484000D01*
X174211000Y-109482000D01*
X174206000Y-109480000D01*
X174201000Y-109478000D01*
X174196000Y-109477000D01*
X174191000Y-109476000D01*
X174185000Y-109476000D01*
X174180000Y-109475000D01*
X174175000Y-109475000D01*
X174025000Y-109475000D01*
X174020000Y-109475000D01*
X174015000Y-109476000D01*
X174009000Y-109476000D01*
X174004000Y-109477000D01*
X173999000Y-109478000D01*
X173994000Y-109480000D01*
X173989000Y-109482000D01*
X173984000Y-109484000D01*
X173980000Y-109486000D01*
X173975000Y-109488000D01*
X173971000Y-109491000D01*
X173966000Y-109494000D01*
X173962000Y-109497000D01*
X173958000Y-109501000D01*
X173954000Y-109504000D01*
X173951000Y-109508000D01*
X173947000Y-109512000D01*
X173944000Y-109516000D01*
X173941000Y-109521000D01*
X173938000Y-109525000D01*
X173936000Y-109530000D01*
X173934000Y-109534000D01*
X173932000Y-109539000D01*
X173930000Y-109544000D01*
X173928000Y-109549000D01*
X173927000Y-109554000D01*
X173926000Y-109559000D01*
X173926000Y-109565000D01*
X173925000Y-109570000D01*
X173925000Y-109575000D01*
X173925000Y-110075000D01*
X173925000Y-110080000D01*
X173926000Y-110085000D01*
X173926000Y-110091000D01*
X173927000Y-110096000D01*
X173928000Y-110101000D01*
X173930000Y-110106000D01*
X173932000Y-110111000D01*
X173934000Y-110116000D01*
X173936000Y-110120000D01*
X173938000Y-110125000D01*
X173941000Y-110129000D01*
X173944000Y-110134000D01*
X173947000Y-110138000D01*
X173951000Y-110142000D01*
X173954000Y-110146000D01*
X173958000Y-110149000D01*
X173962000Y-110153000D01*
X173966000Y-110156000D01*
X173971000Y-110159000D01*
X173975000Y-110162000D01*
X173980000Y-110164000D01*
X173984000Y-110166000D01*
X173989000Y-110168000D01*
X173994000Y-110170000D01*
X173999000Y-110172000D01*
X174004000Y-110173000D01*
X174009000Y-110174000D01*
X174015000Y-110174000D01*
X174020000Y-110175000D01*
X174025000Y-110175000D01*
X174175000Y-110175000D01*
X174180000Y-110175000D01*
X174185000Y-110174000D01*
X174191000Y-110174000D01*
X174196000Y-110173000D01*
X174201000Y-110172000D01*
X174206000Y-110170000D01*
X174211000Y-110168000D01*
X174216000Y-110166000D01*
X174220000Y-110164000D01*
X174225000Y-110162000D01*
X174229000Y-110159000D01*
X174234000Y-110156000D01*
X174238000Y-110153000D01*
X174242000Y-110149000D01*
X174246000Y-110146000D01*
X174249000Y-110142000D01*
X174253000Y-110138000D01*
X174256000Y-110134000D01*
X174259000Y-110129000D01*
X174262000Y-110125000D01*
X174264000Y-110120000D01*
X174266000Y-110116000D01*
X174268000Y-110111000D01*
X174270000Y-110106000D01*
X174272000Y-110101000D01*
X174273000Y-110096000D01*
X174274000Y-110091000D01*
X174274000Y-110085000D01*
X174275000Y-110080000D01*
X174275000Y-110075000D01*
G36*
X174185000Y-109476000D02*
G01*
X174191000Y-109476000D01*
X174196000Y-109477000D01*
X174201000Y-109478000D01*
X174206000Y-109480000D01*
X174211000Y-109482000D01*
X174216000Y-109484000D01*
X174220000Y-109486000D01*
X174225000Y-109488000D01*
X174229000Y-109491000D01*
X174234000Y-109494000D01*
X174238000Y-109497000D01*
X174242000Y-109501000D01*
X174246000Y-109504000D01*
X174249000Y-109508000D01*
X174253000Y-109512000D01*
X174256000Y-109516000D01*
X174259000Y-109521000D01*
X174262000Y-109525000D01*
X174264000Y-109530000D01*
X174266000Y-109534000D01*
X174268000Y-109539000D01*
X174270000Y-109544000D01*
X174272000Y-109549000D01*
X174273000Y-109554000D01*
X174274000Y-109559000D01*
X174274000Y-109565000D01*
X174275000Y-109570000D01*
X174275000Y-109575000D01*
X174275000Y-110075000D01*
X174275000Y-110080000D01*
X174274000Y-110085000D01*
X174274000Y-110091000D01*
X174273000Y-110096000D01*
X174272000Y-110101000D01*
X174270000Y-110106000D01*
X174268000Y-110111000D01*
X174266000Y-110116000D01*
X174264000Y-110120000D01*
X174262000Y-110125000D01*
X174259000Y-110129000D01*
X174256000Y-110134000D01*
X174253000Y-110138000D01*
X174249000Y-110142000D01*
X174246000Y-110146000D01*
X174242000Y-110149000D01*
X174238000Y-110153000D01*
X174234000Y-110156000D01*
X174229000Y-110159000D01*
X174225000Y-110162000D01*
X174220000Y-110164000D01*
X174216000Y-110166000D01*
X174211000Y-110168000D01*
X174206000Y-110170000D01*
X174201000Y-110172000D01*
X174196000Y-110173000D01*
X174191000Y-110174000D01*
X174185000Y-110174000D01*
X174180000Y-110175000D01*
X174175000Y-110175000D01*
X174025000Y-110175000D01*
X174020000Y-110175000D01*
X174015000Y-110174000D01*
X174009000Y-110174000D01*
X174004000Y-110173000D01*
X173999000Y-110172000D01*
X173994000Y-110170000D01*
X173989000Y-110168000D01*
X173984000Y-110166000D01*
X173980000Y-110164000D01*
X173975000Y-110162000D01*
X173971000Y-110159000D01*
X173966000Y-110156000D01*
X173962000Y-110153000D01*
X173958000Y-110149000D01*
X173954000Y-110146000D01*
X173951000Y-110142000D01*
X173947000Y-110138000D01*
X173944000Y-110134000D01*
X173941000Y-110129000D01*
X173938000Y-110125000D01*
X173936000Y-110120000D01*
X173934000Y-110116000D01*
X173932000Y-110111000D01*
X173930000Y-110106000D01*
X173928000Y-110101000D01*
X173927000Y-110096000D01*
X173926000Y-110091000D01*
X173926000Y-110085000D01*
X173925000Y-110080000D01*
X173925000Y-110075000D01*
X173925000Y-109575000D01*
X173925000Y-109570000D01*
X173926000Y-109565000D01*
X173926000Y-109559000D01*
X173927000Y-109554000D01*
X173928000Y-109549000D01*
X173930000Y-109544000D01*
X173932000Y-109539000D01*
X173934000Y-109534000D01*
X173936000Y-109530000D01*
X173938000Y-109525000D01*
X173941000Y-109521000D01*
X173944000Y-109516000D01*
X173947000Y-109512000D01*
X173951000Y-109508000D01*
X173954000Y-109504000D01*
X173958000Y-109501000D01*
X173962000Y-109497000D01*
X173966000Y-109494000D01*
X173971000Y-109491000D01*
X173975000Y-109488000D01*
X173980000Y-109486000D01*
X173984000Y-109484000D01*
X173989000Y-109482000D01*
X173994000Y-109480000D01*
X173999000Y-109478000D01*
X174004000Y-109477000D01*
X174009000Y-109476000D01*
X174015000Y-109476000D01*
X174020000Y-109475000D01*
X174025000Y-109475000D01*
X174175000Y-109475000D01*
X174180000Y-109475000D01*
X174185000Y-109476000D01*
G37*
X174425000Y-111075000D02*
X174275000Y-111075000D01*
X174272000Y-111075000D01*
X174270000Y-111075000D01*
X174267000Y-111076000D01*
X174265000Y-111076000D01*
X174262000Y-111077000D01*
X174260000Y-111077000D01*
X174257000Y-111078000D01*
X174255000Y-111079000D01*
X174252000Y-111080000D01*
X174250000Y-111082000D01*
X174248000Y-111083000D01*
X174246000Y-111085000D01*
X174244000Y-111086000D01*
X174242000Y-111088000D01*
X174240000Y-111090000D01*
X174238000Y-111092000D01*
X174236000Y-111094000D01*
X174235000Y-111096000D01*
X174233000Y-111098000D01*
X174232000Y-111100000D01*
X174230000Y-111102000D01*
X174229000Y-111105000D01*
X174228000Y-111107000D01*
X174227000Y-111110000D01*
X174227000Y-111112000D01*
X174226000Y-111115000D01*
X174226000Y-111117000D01*
X174225000Y-111120000D01*
X174225000Y-111122000D01*
X174225000Y-111125000D01*
X174225000Y-112375000D01*
X174225000Y-112378000D01*
X174225000Y-112380000D01*
X174226000Y-112383000D01*
X174226000Y-112385000D01*
X174227000Y-112388000D01*
X174227000Y-112390000D01*
X174228000Y-112393000D01*
X174229000Y-112395000D01*
X174230000Y-112398000D01*
X174232000Y-112400000D01*
X174233000Y-112402000D01*
X174235000Y-112404000D01*
X174236000Y-112406000D01*
X174238000Y-112408000D01*
X174240000Y-112410000D01*
X174242000Y-112412000D01*
X174244000Y-112414000D01*
X174246000Y-112415000D01*
X174248000Y-112417000D01*
X174250000Y-112418000D01*
X174252000Y-112420000D01*
X174255000Y-112421000D01*
X174257000Y-112422000D01*
X174260000Y-112423000D01*
X174262000Y-112423000D01*
X174265000Y-112424000D01*
X174267000Y-112424000D01*
X174270000Y-112425000D01*
X174272000Y-112425000D01*
X174275000Y-112425000D01*
X174425000Y-112425000D01*
X174428000Y-112425000D01*
X174430000Y-112425000D01*
X174433000Y-112424000D01*
X174435000Y-112424000D01*
X174438000Y-112423000D01*
X174440000Y-112423000D01*
X174443000Y-112422000D01*
X174445000Y-112421000D01*
X174448000Y-112420000D01*
X174450000Y-112418000D01*
X174452000Y-112417000D01*
X174454000Y-112415000D01*
X174456000Y-112414000D01*
X174458000Y-112412000D01*
X174460000Y-112410000D01*
X174462000Y-112408000D01*
X174464000Y-112406000D01*
X174465000Y-112404000D01*
X174467000Y-112402000D01*
X174468000Y-112400000D01*
X174470000Y-112398000D01*
X174471000Y-112395000D01*
X174472000Y-112393000D01*
X174473000Y-112390000D01*
X174473000Y-112388000D01*
X174474000Y-112385000D01*
X174474000Y-112383000D01*
X174475000Y-112380000D01*
X174475000Y-112378000D01*
X174475000Y-112375000D01*
X174475000Y-111125000D01*
X174475000Y-111122000D01*
X174475000Y-111120000D01*
X174474000Y-111117000D01*
X174474000Y-111115000D01*
X174473000Y-111112000D01*
X174473000Y-111110000D01*
X174472000Y-111107000D01*
X174471000Y-111105000D01*
X174470000Y-111102000D01*
X174468000Y-111100000D01*
X174467000Y-111098000D01*
X174465000Y-111096000D01*
X174464000Y-111094000D01*
X174462000Y-111092000D01*
X174460000Y-111090000D01*
X174458000Y-111088000D01*
X174456000Y-111086000D01*
X174454000Y-111085000D01*
X174452000Y-111083000D01*
X174450000Y-111082000D01*
X174448000Y-111080000D01*
X174445000Y-111079000D01*
X174443000Y-111078000D01*
X174440000Y-111077000D01*
X174438000Y-111077000D01*
X174435000Y-111076000D01*
X174433000Y-111076000D01*
X174430000Y-111075000D01*
X174428000Y-111075000D01*
X174425000Y-111075000D01*
G36*
X174433000Y-111076000D02*
G01*
X174435000Y-111076000D01*
X174438000Y-111077000D01*
X174440000Y-111077000D01*
X174443000Y-111078000D01*
X174445000Y-111079000D01*
X174448000Y-111080000D01*
X174450000Y-111082000D01*
X174452000Y-111083000D01*
X174454000Y-111085000D01*
X174456000Y-111086000D01*
X174458000Y-111088000D01*
X174460000Y-111090000D01*
X174462000Y-111092000D01*
X174464000Y-111094000D01*
X174465000Y-111096000D01*
X174467000Y-111098000D01*
X174468000Y-111100000D01*
X174470000Y-111102000D01*
X174471000Y-111105000D01*
X174472000Y-111107000D01*
X174473000Y-111110000D01*
X174473000Y-111112000D01*
X174474000Y-111115000D01*
X174474000Y-111117000D01*
X174475000Y-111120000D01*
X174475000Y-111122000D01*
X174475000Y-111125000D01*
X174475000Y-112375000D01*
X174475000Y-112378000D01*
X174475000Y-112380000D01*
X174474000Y-112383000D01*
X174474000Y-112385000D01*
X174473000Y-112388000D01*
X174473000Y-112390000D01*
X174472000Y-112393000D01*
X174471000Y-112395000D01*
X174470000Y-112398000D01*
X174468000Y-112400000D01*
X174467000Y-112402000D01*
X174465000Y-112404000D01*
X174464000Y-112406000D01*
X174462000Y-112408000D01*
X174460000Y-112410000D01*
X174458000Y-112412000D01*
X174456000Y-112414000D01*
X174454000Y-112415000D01*
X174452000Y-112417000D01*
X174450000Y-112418000D01*
X174448000Y-112420000D01*
X174445000Y-112421000D01*
X174443000Y-112422000D01*
X174440000Y-112423000D01*
X174438000Y-112423000D01*
X174435000Y-112424000D01*
X174433000Y-112424000D01*
X174430000Y-112425000D01*
X174428000Y-112425000D01*
X174425000Y-112425000D01*
X174275000Y-112425000D01*
X174272000Y-112425000D01*
X174270000Y-112425000D01*
X174267000Y-112424000D01*
X174265000Y-112424000D01*
X174262000Y-112423000D01*
X174260000Y-112423000D01*
X174257000Y-112422000D01*
X174255000Y-112421000D01*
X174252000Y-112420000D01*
X174250000Y-112418000D01*
X174248000Y-112417000D01*
X174246000Y-112415000D01*
X174244000Y-112414000D01*
X174242000Y-112412000D01*
X174240000Y-112410000D01*
X174238000Y-112408000D01*
X174236000Y-112406000D01*
X174235000Y-112404000D01*
X174233000Y-112402000D01*
X174232000Y-112400000D01*
X174230000Y-112398000D01*
X174229000Y-112395000D01*
X174228000Y-112393000D01*
X174227000Y-112390000D01*
X174227000Y-112388000D01*
X174226000Y-112385000D01*
X174226000Y-112383000D01*
X174225000Y-112380000D01*
X174225000Y-112378000D01*
X174225000Y-112375000D01*
X174225000Y-111125000D01*
X174225000Y-111122000D01*
X174225000Y-111120000D01*
X174226000Y-111117000D01*
X174226000Y-111115000D01*
X174227000Y-111112000D01*
X174227000Y-111110000D01*
X174228000Y-111107000D01*
X174229000Y-111105000D01*
X174230000Y-111102000D01*
X174232000Y-111100000D01*
X174233000Y-111098000D01*
X174235000Y-111096000D01*
X174236000Y-111094000D01*
X174238000Y-111092000D01*
X174240000Y-111090000D01*
X174242000Y-111088000D01*
X174244000Y-111086000D01*
X174246000Y-111085000D01*
X174248000Y-111083000D01*
X174250000Y-111082000D01*
X174252000Y-111080000D01*
X174255000Y-111079000D01*
X174257000Y-111078000D01*
X174260000Y-111077000D01*
X174262000Y-111077000D01*
X174265000Y-111076000D01*
X174267000Y-111076000D01*
X174270000Y-111075000D01*
X174272000Y-111075000D01*
X174275000Y-111075000D01*
X174425000Y-111075000D01*
X174428000Y-111075000D01*
X174430000Y-111075000D01*
X174433000Y-111076000D01*
G37*
X174775000Y-110075000D02*
X174775000Y-109575000D01*
X174775000Y-109570000D01*
X174774000Y-109565000D01*
X174774000Y-109559000D01*
X174773000Y-109554000D01*
X174772000Y-109549000D01*
X174770000Y-109544000D01*
X174768000Y-109539000D01*
X174766000Y-109534000D01*
X174764000Y-109530000D01*
X174762000Y-109525000D01*
X174759000Y-109521000D01*
X174756000Y-109516000D01*
X174753000Y-109512000D01*
X174749000Y-109508000D01*
X174746000Y-109504000D01*
X174742000Y-109501000D01*
X174738000Y-109497000D01*
X174734000Y-109494000D01*
X174729000Y-109491000D01*
X174725000Y-109488000D01*
X174720000Y-109486000D01*
X174716000Y-109484000D01*
X174711000Y-109482000D01*
X174706000Y-109480000D01*
X174701000Y-109478000D01*
X174696000Y-109477000D01*
X174691000Y-109476000D01*
X174685000Y-109476000D01*
X174680000Y-109475000D01*
X174675000Y-109475000D01*
X174525000Y-109475000D01*
X174520000Y-109475000D01*
X174515000Y-109476000D01*
X174509000Y-109476000D01*
X174504000Y-109477000D01*
X174499000Y-109478000D01*
X174494000Y-109480000D01*
X174489000Y-109482000D01*
X174484000Y-109484000D01*
X174480000Y-109486000D01*
X174475000Y-109488000D01*
X174471000Y-109491000D01*
X174466000Y-109494000D01*
X174462000Y-109497000D01*
X174458000Y-109501000D01*
X174454000Y-109504000D01*
X174451000Y-109508000D01*
X174447000Y-109512000D01*
X174444000Y-109516000D01*
X174441000Y-109521000D01*
X174438000Y-109525000D01*
X174436000Y-109530000D01*
X174434000Y-109534000D01*
X174432000Y-109539000D01*
X174430000Y-109544000D01*
X174428000Y-109549000D01*
X174427000Y-109554000D01*
X174426000Y-109559000D01*
X174426000Y-109565000D01*
X174425000Y-109570000D01*
X174425000Y-109575000D01*
X174425000Y-110075000D01*
X174425000Y-110080000D01*
X174426000Y-110085000D01*
X174426000Y-110091000D01*
X174427000Y-110096000D01*
X174428000Y-110101000D01*
X174430000Y-110106000D01*
X174432000Y-110111000D01*
X174434000Y-110116000D01*
X174436000Y-110120000D01*
X174438000Y-110125000D01*
X174441000Y-110129000D01*
X174444000Y-110134000D01*
X174447000Y-110138000D01*
X174451000Y-110142000D01*
X174454000Y-110146000D01*
X174458000Y-110149000D01*
X174462000Y-110153000D01*
X174466000Y-110156000D01*
X174471000Y-110159000D01*
X174475000Y-110162000D01*
X174480000Y-110164000D01*
X174484000Y-110166000D01*
X174489000Y-110168000D01*
X174494000Y-110170000D01*
X174499000Y-110172000D01*
X174504000Y-110173000D01*
X174509000Y-110174000D01*
X174515000Y-110174000D01*
X174520000Y-110175000D01*
X174525000Y-110175000D01*
X174675000Y-110175000D01*
X174680000Y-110175000D01*
X174685000Y-110174000D01*
X174691000Y-110174000D01*
X174696000Y-110173000D01*
X174701000Y-110172000D01*
X174706000Y-110170000D01*
X174711000Y-110168000D01*
X174716000Y-110166000D01*
X174720000Y-110164000D01*
X174725000Y-110162000D01*
X174729000Y-110159000D01*
X174734000Y-110156000D01*
X174738000Y-110153000D01*
X174742000Y-110149000D01*
X174746000Y-110146000D01*
X174749000Y-110142000D01*
X174753000Y-110138000D01*
X174756000Y-110134000D01*
X174759000Y-110129000D01*
X174762000Y-110125000D01*
X174764000Y-110120000D01*
X174766000Y-110116000D01*
X174768000Y-110111000D01*
X174770000Y-110106000D01*
X174772000Y-110101000D01*
X174773000Y-110096000D01*
X174774000Y-110091000D01*
X174774000Y-110085000D01*
X174775000Y-110080000D01*
X174775000Y-110075000D01*
G36*
X174685000Y-109476000D02*
G01*
X174691000Y-109476000D01*
X174696000Y-109477000D01*
X174701000Y-109478000D01*
X174706000Y-109480000D01*
X174711000Y-109482000D01*
X174716000Y-109484000D01*
X174720000Y-109486000D01*
X174725000Y-109488000D01*
X174729000Y-109491000D01*
X174734000Y-109494000D01*
X174738000Y-109497000D01*
X174742000Y-109501000D01*
X174746000Y-109504000D01*
X174749000Y-109508000D01*
X174753000Y-109512000D01*
X174756000Y-109516000D01*
X174759000Y-109521000D01*
X174762000Y-109525000D01*
X174764000Y-109530000D01*
X174766000Y-109534000D01*
X174768000Y-109539000D01*
X174770000Y-109544000D01*
X174772000Y-109549000D01*
X174773000Y-109554000D01*
X174774000Y-109559000D01*
X174774000Y-109565000D01*
X174775000Y-109570000D01*
X174775000Y-109575000D01*
X174775000Y-110075000D01*
X174775000Y-110080000D01*
X174774000Y-110085000D01*
X174774000Y-110091000D01*
X174773000Y-110096000D01*
X174772000Y-110101000D01*
X174770000Y-110106000D01*
X174768000Y-110111000D01*
X174766000Y-110116000D01*
X174764000Y-110120000D01*
X174762000Y-110125000D01*
X174759000Y-110129000D01*
X174756000Y-110134000D01*
X174753000Y-110138000D01*
X174749000Y-110142000D01*
X174746000Y-110146000D01*
X174742000Y-110149000D01*
X174738000Y-110153000D01*
X174734000Y-110156000D01*
X174729000Y-110159000D01*
X174725000Y-110162000D01*
X174720000Y-110164000D01*
X174716000Y-110166000D01*
X174711000Y-110168000D01*
X174706000Y-110170000D01*
X174701000Y-110172000D01*
X174696000Y-110173000D01*
X174691000Y-110174000D01*
X174685000Y-110174000D01*
X174680000Y-110175000D01*
X174675000Y-110175000D01*
X174525000Y-110175000D01*
X174520000Y-110175000D01*
X174515000Y-110174000D01*
X174509000Y-110174000D01*
X174504000Y-110173000D01*
X174499000Y-110172000D01*
X174494000Y-110170000D01*
X174489000Y-110168000D01*
X174484000Y-110166000D01*
X174480000Y-110164000D01*
X174475000Y-110162000D01*
X174471000Y-110159000D01*
X174466000Y-110156000D01*
X174462000Y-110153000D01*
X174458000Y-110149000D01*
X174454000Y-110146000D01*
X174451000Y-110142000D01*
X174447000Y-110138000D01*
X174444000Y-110134000D01*
X174441000Y-110129000D01*
X174438000Y-110125000D01*
X174436000Y-110120000D01*
X174434000Y-110116000D01*
X174432000Y-110111000D01*
X174430000Y-110106000D01*
X174428000Y-110101000D01*
X174427000Y-110096000D01*
X174426000Y-110091000D01*
X174426000Y-110085000D01*
X174425000Y-110080000D01*
X174425000Y-110075000D01*
X174425000Y-109575000D01*
X174425000Y-109570000D01*
X174426000Y-109565000D01*
X174426000Y-109559000D01*
X174427000Y-109554000D01*
X174428000Y-109549000D01*
X174430000Y-109544000D01*
X174432000Y-109539000D01*
X174434000Y-109534000D01*
X174436000Y-109530000D01*
X174438000Y-109525000D01*
X174441000Y-109521000D01*
X174444000Y-109516000D01*
X174447000Y-109512000D01*
X174451000Y-109508000D01*
X174454000Y-109504000D01*
X174458000Y-109501000D01*
X174462000Y-109497000D01*
X174466000Y-109494000D01*
X174471000Y-109491000D01*
X174475000Y-109488000D01*
X174480000Y-109486000D01*
X174484000Y-109484000D01*
X174489000Y-109482000D01*
X174494000Y-109480000D01*
X174499000Y-109478000D01*
X174504000Y-109477000D01*
X174509000Y-109476000D01*
X174515000Y-109476000D01*
X174520000Y-109475000D01*
X174525000Y-109475000D01*
X174675000Y-109475000D01*
X174680000Y-109475000D01*
X174685000Y-109476000D01*
G37*
X175500000Y-110075000D02*
X175000000Y-110075000D01*
X174995000Y-110075000D01*
X174990000Y-110076000D01*
X174984000Y-110076000D01*
X174979000Y-110077000D01*
X174974000Y-110078000D01*
X174969000Y-110080000D01*
X174964000Y-110082000D01*
X174959000Y-110084000D01*
X174955000Y-110086000D01*
X174950000Y-110088000D01*
X174946000Y-110091000D01*
X174941000Y-110094000D01*
X174937000Y-110097000D01*
X174933000Y-110101000D01*
X174929000Y-110104000D01*
X174926000Y-110108000D01*
X174922000Y-110112000D01*
X174919000Y-110116000D01*
X174916000Y-110121000D01*
X174913000Y-110125000D01*
X174911000Y-110130000D01*
X174909000Y-110134000D01*
X174907000Y-110139000D01*
X174905000Y-110144000D01*
X174903000Y-110149000D01*
X174902000Y-110154000D01*
X174901000Y-110159000D01*
X174901000Y-110165000D01*
X174900000Y-110170000D01*
X174900000Y-110175000D01*
X174900000Y-110325000D01*
X174900000Y-110330000D01*
X174901000Y-110335000D01*
X174901000Y-110341000D01*
X174902000Y-110346000D01*
X174903000Y-110351000D01*
X174905000Y-110356000D01*
X174907000Y-110361000D01*
X174909000Y-110366000D01*
X174911000Y-110370000D01*
X174913000Y-110375000D01*
X174916000Y-110379000D01*
X174919000Y-110384000D01*
X174922000Y-110388000D01*
X174926000Y-110392000D01*
X174929000Y-110396000D01*
X174933000Y-110399000D01*
X174937000Y-110403000D01*
X174941000Y-110406000D01*
X174946000Y-110409000D01*
X174950000Y-110412000D01*
X174955000Y-110414000D01*
X174959000Y-110416000D01*
X174964000Y-110418000D01*
X174969000Y-110420000D01*
X174974000Y-110422000D01*
X174979000Y-110423000D01*
X174984000Y-110424000D01*
X174990000Y-110424000D01*
X174995000Y-110425000D01*
X175000000Y-110425000D01*
X175500000Y-110425000D01*
X175505000Y-110425000D01*
X175510000Y-110424000D01*
X175516000Y-110424000D01*
X175521000Y-110423000D01*
X175526000Y-110422000D01*
X175531000Y-110420000D01*
X175536000Y-110418000D01*
X175541000Y-110416000D01*
X175545000Y-110414000D01*
X175550000Y-110412000D01*
X175554000Y-110409000D01*
X175559000Y-110406000D01*
X175563000Y-110403000D01*
X175567000Y-110399000D01*
X175571000Y-110396000D01*
X175574000Y-110392000D01*
X175578000Y-110388000D01*
X175581000Y-110384000D01*
X175584000Y-110379000D01*
X175587000Y-110375000D01*
X175589000Y-110370000D01*
X175591000Y-110366000D01*
X175593000Y-110361000D01*
X175595000Y-110356000D01*
X175597000Y-110351000D01*
X175598000Y-110346000D01*
X175599000Y-110341000D01*
X175599000Y-110335000D01*
X175600000Y-110330000D01*
X175600000Y-110325000D01*
X175600000Y-110175000D01*
X175600000Y-110170000D01*
X175599000Y-110165000D01*
X175599000Y-110159000D01*
X175598000Y-110154000D01*
X175597000Y-110149000D01*
X175595000Y-110144000D01*
X175593000Y-110139000D01*
X175591000Y-110134000D01*
X175589000Y-110130000D01*
X175587000Y-110125000D01*
X175584000Y-110121000D01*
X175581000Y-110116000D01*
X175578000Y-110112000D01*
X175574000Y-110108000D01*
X175571000Y-110104000D01*
X175567000Y-110101000D01*
X175563000Y-110097000D01*
X175559000Y-110094000D01*
X175554000Y-110091000D01*
X175550000Y-110088000D01*
X175545000Y-110086000D01*
X175541000Y-110084000D01*
X175536000Y-110082000D01*
X175531000Y-110080000D01*
X175526000Y-110078000D01*
X175521000Y-110077000D01*
X175516000Y-110076000D01*
X175510000Y-110076000D01*
X175505000Y-110075000D01*
X175500000Y-110075000D01*
G36*
X175510000Y-110076000D02*
G01*
X175516000Y-110076000D01*
X175521000Y-110077000D01*
X175526000Y-110078000D01*
X175531000Y-110080000D01*
X175536000Y-110082000D01*
X175541000Y-110084000D01*
X175545000Y-110086000D01*
X175550000Y-110088000D01*
X175554000Y-110091000D01*
X175559000Y-110094000D01*
X175563000Y-110097000D01*
X175567000Y-110101000D01*
X175571000Y-110104000D01*
X175574000Y-110108000D01*
X175578000Y-110112000D01*
X175581000Y-110116000D01*
X175584000Y-110121000D01*
X175587000Y-110125000D01*
X175589000Y-110130000D01*
X175591000Y-110134000D01*
X175593000Y-110139000D01*
X175595000Y-110144000D01*
X175597000Y-110149000D01*
X175598000Y-110154000D01*
X175599000Y-110159000D01*
X175599000Y-110165000D01*
X175600000Y-110170000D01*
X175600000Y-110175000D01*
X175600000Y-110325000D01*
X175600000Y-110330000D01*
X175599000Y-110335000D01*
X175599000Y-110341000D01*
X175598000Y-110346000D01*
X175597000Y-110351000D01*
X175595000Y-110356000D01*
X175593000Y-110361000D01*
X175591000Y-110366000D01*
X175589000Y-110370000D01*
X175587000Y-110375000D01*
X175584000Y-110379000D01*
X175581000Y-110384000D01*
X175578000Y-110388000D01*
X175574000Y-110392000D01*
X175571000Y-110396000D01*
X175567000Y-110399000D01*
X175563000Y-110403000D01*
X175559000Y-110406000D01*
X175554000Y-110409000D01*
X175550000Y-110412000D01*
X175545000Y-110414000D01*
X175541000Y-110416000D01*
X175536000Y-110418000D01*
X175531000Y-110420000D01*
X175526000Y-110422000D01*
X175521000Y-110423000D01*
X175516000Y-110424000D01*
X175510000Y-110424000D01*
X175505000Y-110425000D01*
X175500000Y-110425000D01*
X175000000Y-110425000D01*
X174995000Y-110425000D01*
X174990000Y-110424000D01*
X174984000Y-110424000D01*
X174979000Y-110423000D01*
X174974000Y-110422000D01*
X174969000Y-110420000D01*
X174964000Y-110418000D01*
X174959000Y-110416000D01*
X174955000Y-110414000D01*
X174950000Y-110412000D01*
X174946000Y-110409000D01*
X174941000Y-110406000D01*
X174937000Y-110403000D01*
X174933000Y-110399000D01*
X174929000Y-110396000D01*
X174926000Y-110392000D01*
X174922000Y-110388000D01*
X174919000Y-110384000D01*
X174916000Y-110379000D01*
X174913000Y-110375000D01*
X174911000Y-110370000D01*
X174909000Y-110366000D01*
X174907000Y-110361000D01*
X174905000Y-110356000D01*
X174903000Y-110351000D01*
X174902000Y-110346000D01*
X174901000Y-110341000D01*
X174901000Y-110335000D01*
X174900000Y-110330000D01*
X174900000Y-110325000D01*
X174900000Y-110175000D01*
X174900000Y-110170000D01*
X174901000Y-110165000D01*
X174901000Y-110159000D01*
X174902000Y-110154000D01*
X174903000Y-110149000D01*
X174905000Y-110144000D01*
X174907000Y-110139000D01*
X174909000Y-110134000D01*
X174911000Y-110130000D01*
X174913000Y-110125000D01*
X174916000Y-110121000D01*
X174919000Y-110116000D01*
X174922000Y-110112000D01*
X174926000Y-110108000D01*
X174929000Y-110104000D01*
X174933000Y-110101000D01*
X174937000Y-110097000D01*
X174941000Y-110094000D01*
X174946000Y-110091000D01*
X174950000Y-110088000D01*
X174955000Y-110086000D01*
X174959000Y-110084000D01*
X174964000Y-110082000D01*
X174969000Y-110080000D01*
X174974000Y-110078000D01*
X174979000Y-110077000D01*
X174984000Y-110076000D01*
X174990000Y-110076000D01*
X174995000Y-110075000D01*
X175000000Y-110075000D01*
X175500000Y-110075000D01*
X175505000Y-110075000D01*
X175510000Y-110076000D01*
G37*
X175500000Y-110575000D02*
X175000000Y-110575000D01*
X174995000Y-110575000D01*
X174990000Y-110576000D01*
X174984000Y-110576000D01*
X174979000Y-110577000D01*
X174974000Y-110578000D01*
X174969000Y-110580000D01*
X174964000Y-110582000D01*
X174959000Y-110584000D01*
X174955000Y-110586000D01*
X174950000Y-110588000D01*
X174946000Y-110591000D01*
X174941000Y-110594000D01*
X174937000Y-110597000D01*
X174933000Y-110601000D01*
X174929000Y-110604000D01*
X174926000Y-110608000D01*
X174922000Y-110612000D01*
X174919000Y-110616000D01*
X174916000Y-110621000D01*
X174913000Y-110625000D01*
X174911000Y-110630000D01*
X174909000Y-110634000D01*
X174907000Y-110639000D01*
X174905000Y-110644000D01*
X174903000Y-110649000D01*
X174902000Y-110654000D01*
X174901000Y-110659000D01*
X174901000Y-110665000D01*
X174900000Y-110670000D01*
X174900000Y-110675000D01*
X174900000Y-110825000D01*
X174900000Y-110830000D01*
X174901000Y-110835000D01*
X174901000Y-110841000D01*
X174902000Y-110846000D01*
X174903000Y-110851000D01*
X174905000Y-110856000D01*
X174907000Y-110861000D01*
X174909000Y-110866000D01*
X174911000Y-110870000D01*
X174913000Y-110875000D01*
X174916000Y-110879000D01*
X174919000Y-110884000D01*
X174922000Y-110888000D01*
X174926000Y-110892000D01*
X174929000Y-110896000D01*
X174933000Y-110899000D01*
X174937000Y-110903000D01*
X174941000Y-110906000D01*
X174946000Y-110909000D01*
X174950000Y-110912000D01*
X174955000Y-110914000D01*
X174959000Y-110916000D01*
X174964000Y-110918000D01*
X174969000Y-110920000D01*
X174974000Y-110922000D01*
X174979000Y-110923000D01*
X174984000Y-110924000D01*
X174990000Y-110924000D01*
X174995000Y-110925000D01*
X175000000Y-110925000D01*
X175500000Y-110925000D01*
X175505000Y-110925000D01*
X175510000Y-110924000D01*
X175516000Y-110924000D01*
X175521000Y-110923000D01*
X175526000Y-110922000D01*
X175531000Y-110920000D01*
X175536000Y-110918000D01*
X175541000Y-110916000D01*
X175545000Y-110914000D01*
X175550000Y-110912000D01*
X175554000Y-110909000D01*
X175559000Y-110906000D01*
X175563000Y-110903000D01*
X175567000Y-110899000D01*
X175571000Y-110896000D01*
X175574000Y-110892000D01*
X175578000Y-110888000D01*
X175581000Y-110884000D01*
X175584000Y-110879000D01*
X175587000Y-110875000D01*
X175589000Y-110870000D01*
X175591000Y-110866000D01*
X175593000Y-110861000D01*
X175595000Y-110856000D01*
X175597000Y-110851000D01*
X175598000Y-110846000D01*
X175599000Y-110841000D01*
X175599000Y-110835000D01*
X175600000Y-110830000D01*
X175600000Y-110825000D01*
X175600000Y-110675000D01*
X175600000Y-110670000D01*
X175599000Y-110665000D01*
X175599000Y-110659000D01*
X175598000Y-110654000D01*
X175597000Y-110649000D01*
X175595000Y-110644000D01*
X175593000Y-110639000D01*
X175591000Y-110634000D01*
X175589000Y-110630000D01*
X175587000Y-110625000D01*
X175584000Y-110621000D01*
X175581000Y-110616000D01*
X175578000Y-110612000D01*
X175574000Y-110608000D01*
X175571000Y-110604000D01*
X175567000Y-110601000D01*
X175563000Y-110597000D01*
X175559000Y-110594000D01*
X175554000Y-110591000D01*
X175550000Y-110588000D01*
X175545000Y-110586000D01*
X175541000Y-110584000D01*
X175536000Y-110582000D01*
X175531000Y-110580000D01*
X175526000Y-110578000D01*
X175521000Y-110577000D01*
X175516000Y-110576000D01*
X175510000Y-110576000D01*
X175505000Y-110575000D01*
X175500000Y-110575000D01*
G36*
X175510000Y-110576000D02*
G01*
X175516000Y-110576000D01*
X175521000Y-110577000D01*
X175526000Y-110578000D01*
X175531000Y-110580000D01*
X175536000Y-110582000D01*
X175541000Y-110584000D01*
X175545000Y-110586000D01*
X175550000Y-110588000D01*
X175554000Y-110591000D01*
X175559000Y-110594000D01*
X175563000Y-110597000D01*
X175567000Y-110601000D01*
X175571000Y-110604000D01*
X175574000Y-110608000D01*
X175578000Y-110612000D01*
X175581000Y-110616000D01*
X175584000Y-110621000D01*
X175587000Y-110625000D01*
X175589000Y-110630000D01*
X175591000Y-110634000D01*
X175593000Y-110639000D01*
X175595000Y-110644000D01*
X175597000Y-110649000D01*
X175598000Y-110654000D01*
X175599000Y-110659000D01*
X175599000Y-110665000D01*
X175600000Y-110670000D01*
X175600000Y-110675000D01*
X175600000Y-110825000D01*
X175600000Y-110830000D01*
X175599000Y-110835000D01*
X175599000Y-110841000D01*
X175598000Y-110846000D01*
X175597000Y-110851000D01*
X175595000Y-110856000D01*
X175593000Y-110861000D01*
X175591000Y-110866000D01*
X175589000Y-110870000D01*
X175587000Y-110875000D01*
X175584000Y-110879000D01*
X175581000Y-110884000D01*
X175578000Y-110888000D01*
X175574000Y-110892000D01*
X175571000Y-110896000D01*
X175567000Y-110899000D01*
X175563000Y-110903000D01*
X175559000Y-110906000D01*
X175554000Y-110909000D01*
X175550000Y-110912000D01*
X175545000Y-110914000D01*
X175541000Y-110916000D01*
X175536000Y-110918000D01*
X175531000Y-110920000D01*
X175526000Y-110922000D01*
X175521000Y-110923000D01*
X175516000Y-110924000D01*
X175510000Y-110924000D01*
X175505000Y-110925000D01*
X175500000Y-110925000D01*
X175000000Y-110925000D01*
X174995000Y-110925000D01*
X174990000Y-110924000D01*
X174984000Y-110924000D01*
X174979000Y-110923000D01*
X174974000Y-110922000D01*
X174969000Y-110920000D01*
X174964000Y-110918000D01*
X174959000Y-110916000D01*
X174955000Y-110914000D01*
X174950000Y-110912000D01*
X174946000Y-110909000D01*
X174941000Y-110906000D01*
X174937000Y-110903000D01*
X174933000Y-110899000D01*
X174929000Y-110896000D01*
X174926000Y-110892000D01*
X174922000Y-110888000D01*
X174919000Y-110884000D01*
X174916000Y-110879000D01*
X174913000Y-110875000D01*
X174911000Y-110870000D01*
X174909000Y-110866000D01*
X174907000Y-110861000D01*
X174905000Y-110856000D01*
X174903000Y-110851000D01*
X174902000Y-110846000D01*
X174901000Y-110841000D01*
X174901000Y-110835000D01*
X174900000Y-110830000D01*
X174900000Y-110825000D01*
X174900000Y-110675000D01*
X174900000Y-110670000D01*
X174901000Y-110665000D01*
X174901000Y-110659000D01*
X174902000Y-110654000D01*
X174903000Y-110649000D01*
X174905000Y-110644000D01*
X174907000Y-110639000D01*
X174909000Y-110634000D01*
X174911000Y-110630000D01*
X174913000Y-110625000D01*
X174916000Y-110621000D01*
X174919000Y-110616000D01*
X174922000Y-110612000D01*
X174926000Y-110608000D01*
X174929000Y-110604000D01*
X174933000Y-110601000D01*
X174937000Y-110597000D01*
X174941000Y-110594000D01*
X174946000Y-110591000D01*
X174950000Y-110588000D01*
X174955000Y-110586000D01*
X174959000Y-110584000D01*
X174964000Y-110582000D01*
X174969000Y-110580000D01*
X174974000Y-110578000D01*
X174979000Y-110577000D01*
X174984000Y-110576000D01*
X174990000Y-110576000D01*
X174995000Y-110575000D01*
X175000000Y-110575000D01*
X175500000Y-110575000D01*
X175505000Y-110575000D01*
X175510000Y-110576000D01*
G37*
X172150000Y-111825000D02*
X172150000Y-111675000D01*
X172150000Y-111672000D01*
X172150000Y-111670000D01*
X172151000Y-111667000D01*
X172151000Y-111665000D01*
X172152000Y-111662000D01*
X172152000Y-111660000D01*
X172153000Y-111657000D01*
X172154000Y-111655000D01*
X172155000Y-111652000D01*
X172157000Y-111650000D01*
X172158000Y-111648000D01*
X172160000Y-111646000D01*
X172161000Y-111644000D01*
X172163000Y-111642000D01*
X172165000Y-111640000D01*
X172167000Y-111638000D01*
X172169000Y-111636000D01*
X172171000Y-111635000D01*
X172173000Y-111633000D01*
X172175000Y-111632000D01*
X172177000Y-111630000D01*
X172180000Y-111629000D01*
X172182000Y-111628000D01*
X172185000Y-111627000D01*
X172187000Y-111627000D01*
X172190000Y-111626000D01*
X172192000Y-111626000D01*
X172195000Y-111625000D01*
X172197000Y-111625000D01*
X172200000Y-111625000D01*
X172500000Y-111625000D01*
X172500000Y-111375000D01*
X172200000Y-111375000D01*
X172197000Y-111375000D01*
X172195000Y-111375000D01*
X172192000Y-111374000D01*
X172190000Y-111374000D01*
X172187000Y-111373000D01*
X172185000Y-111373000D01*
X172182000Y-111372000D01*
X172180000Y-111371000D01*
X172177000Y-111370000D01*
X172175000Y-111368000D01*
X172173000Y-111367000D01*
X172171000Y-111365000D01*
X172169000Y-111364000D01*
X172167000Y-111362000D01*
X172165000Y-111360000D01*
X172163000Y-111358000D01*
X172161000Y-111356000D01*
X172160000Y-111354000D01*
X172158000Y-111352000D01*
X172157000Y-111350000D01*
X172155000Y-111348000D01*
X172154000Y-111345000D01*
X172153000Y-111343000D01*
X172152000Y-111340000D01*
X172152000Y-111338000D01*
X172151000Y-111335000D01*
X172151000Y-111333000D01*
X172150000Y-111330000D01*
X172150000Y-111328000D01*
X172150000Y-111325000D01*
X172150000Y-111175000D01*
X172150000Y-111172000D01*
X172150000Y-111170000D01*
X172151000Y-111167000D01*
X172151000Y-111165000D01*
X172152000Y-111162000D01*
X172152000Y-111160000D01*
X172153000Y-111157000D01*
X172154000Y-111155000D01*
X172155000Y-111152000D01*
X172157000Y-111150000D01*
X172158000Y-111148000D01*
X172160000Y-111146000D01*
X172161000Y-111144000D01*
X172163000Y-111142000D01*
X172165000Y-111140000D01*
X172167000Y-111138000D01*
X172169000Y-111136000D01*
X172171000Y-111135000D01*
X172173000Y-111133000D01*
X172175000Y-111132000D01*
X172177000Y-111130000D01*
X172180000Y-111129000D01*
X172182000Y-111128000D01*
X172185000Y-111127000D01*
X172187000Y-111127000D01*
X172190000Y-111126000D01*
X172192000Y-111126000D01*
X172195000Y-111125000D01*
X172197000Y-111125000D01*
X172200000Y-111125000D01*
X172700000Y-111125000D01*
X172703000Y-111125000D01*
X172705000Y-111125000D01*
X172708000Y-111126000D01*
X172710000Y-111126000D01*
X172713000Y-111127000D01*
X172715000Y-111127000D01*
X172718000Y-111128000D01*
X172720000Y-111129000D01*
X172723000Y-111130000D01*
X172725000Y-111132000D01*
X172727000Y-111133000D01*
X172729000Y-111135000D01*
X172731000Y-111136000D01*
X172733000Y-111138000D01*
X172735000Y-111140000D01*
X172737000Y-111142000D01*
X172739000Y-111144000D01*
X172740000Y-111146000D01*
X172742000Y-111148000D01*
X172743000Y-111150000D01*
X172745000Y-111152000D01*
X172746000Y-111155000D01*
X172747000Y-111157000D01*
X172748000Y-111160000D01*
X172748000Y-111162000D01*
X172749000Y-111165000D01*
X172749000Y-111167000D01*
X172750000Y-111170000D01*
X172750000Y-111172000D01*
X172750000Y-111175000D01*
X172750000Y-111825000D01*
X172750000Y-111828000D01*
X172750000Y-111830000D01*
X172749000Y-111833000D01*
X172749000Y-111835000D01*
X172748000Y-111838000D01*
X172748000Y-111840000D01*
X172747000Y-111843000D01*
X172746000Y-111845000D01*
X172745000Y-111848000D01*
X172743000Y-111850000D01*
X172742000Y-111852000D01*
X172740000Y-111854000D01*
X172739000Y-111856000D01*
X172737000Y-111858000D01*
X172735000Y-111860000D01*
X172733000Y-111862000D01*
X172731000Y-111864000D01*
X172729000Y-111865000D01*
X172727000Y-111867000D01*
X172725000Y-111868000D01*
X172723000Y-111870000D01*
X172720000Y-111871000D01*
X172718000Y-111872000D01*
X172715000Y-111873000D01*
X172713000Y-111873000D01*
X172710000Y-111874000D01*
X172708000Y-111874000D01*
X172705000Y-111875000D01*
X172703000Y-111875000D01*
X172700000Y-111875000D01*
X172200000Y-111875000D01*
X172197000Y-111875000D01*
X172195000Y-111875000D01*
X172192000Y-111874000D01*
X172190000Y-111874000D01*
X172187000Y-111873000D01*
X172185000Y-111873000D01*
X172182000Y-111872000D01*
X172180000Y-111871000D01*
X172177000Y-111870000D01*
X172175000Y-111868000D01*
X172173000Y-111867000D01*
X172171000Y-111865000D01*
X172169000Y-111864000D01*
X172167000Y-111862000D01*
X172165000Y-111860000D01*
X172163000Y-111858000D01*
X172161000Y-111856000D01*
X172160000Y-111854000D01*
X172158000Y-111852000D01*
X172157000Y-111850000D01*
X172155000Y-111848000D01*
X172154000Y-111845000D01*
X172153000Y-111843000D01*
X172152000Y-111840000D01*
X172152000Y-111838000D01*
X172151000Y-111835000D01*
X172151000Y-111833000D01*
X172150000Y-111830000D01*
X172150000Y-111828000D01*
X172150000Y-111825000D01*
G36*
X172708000Y-111126000D02*
G01*
X172710000Y-111126000D01*
X172713000Y-111127000D01*
X172715000Y-111127000D01*
X172718000Y-111128000D01*
X172720000Y-111129000D01*
X172723000Y-111130000D01*
X172725000Y-111132000D01*
X172727000Y-111133000D01*
X172729000Y-111135000D01*
X172731000Y-111136000D01*
X172733000Y-111138000D01*
X172735000Y-111140000D01*
X172737000Y-111142000D01*
X172739000Y-111144000D01*
X172740000Y-111146000D01*
X172742000Y-111148000D01*
X172743000Y-111150000D01*
X172745000Y-111152000D01*
X172746000Y-111155000D01*
X172747000Y-111157000D01*
X172748000Y-111160000D01*
X172748000Y-111162000D01*
X172749000Y-111165000D01*
X172749000Y-111167000D01*
X172750000Y-111170000D01*
X172750000Y-111172000D01*
X172750000Y-111175000D01*
X172750000Y-111825000D01*
X172750000Y-111828000D01*
X172750000Y-111830000D01*
X172749000Y-111833000D01*
X172749000Y-111835000D01*
X172748000Y-111838000D01*
X172748000Y-111840000D01*
X172747000Y-111843000D01*
X172746000Y-111845000D01*
X172745000Y-111848000D01*
X172743000Y-111850000D01*
X172742000Y-111852000D01*
X172740000Y-111854000D01*
X172739000Y-111856000D01*
X172737000Y-111858000D01*
X172735000Y-111860000D01*
X172733000Y-111862000D01*
X172731000Y-111864000D01*
X172729000Y-111865000D01*
X172727000Y-111867000D01*
X172725000Y-111868000D01*
X172723000Y-111870000D01*
X172720000Y-111871000D01*
X172718000Y-111872000D01*
X172715000Y-111873000D01*
X172713000Y-111873000D01*
X172710000Y-111874000D01*
X172708000Y-111874000D01*
X172705000Y-111875000D01*
X172703000Y-111875000D01*
X172700000Y-111875000D01*
X172200000Y-111875000D01*
X172197000Y-111875000D01*
X172195000Y-111875000D01*
X172192000Y-111874000D01*
X172190000Y-111874000D01*
X172187000Y-111873000D01*
X172185000Y-111873000D01*
X172182000Y-111872000D01*
X172180000Y-111871000D01*
X172177000Y-111870000D01*
X172175000Y-111868000D01*
X172173000Y-111867000D01*
X172171000Y-111865000D01*
X172169000Y-111864000D01*
X172167000Y-111862000D01*
X172165000Y-111860000D01*
X172163000Y-111858000D01*
X172161000Y-111856000D01*
X172160000Y-111854000D01*
X172158000Y-111852000D01*
X172157000Y-111850000D01*
X172155000Y-111848000D01*
X172154000Y-111845000D01*
X172153000Y-111843000D01*
X172152000Y-111840000D01*
X172152000Y-111838000D01*
X172151000Y-111835000D01*
X172151000Y-111833000D01*
X172150000Y-111830000D01*
X172150000Y-111828000D01*
X172150000Y-111825000D01*
X172150000Y-111675000D01*
X172150000Y-111672000D01*
X172150000Y-111670000D01*
X172151000Y-111667000D01*
X172151000Y-111665000D01*
X172152000Y-111662000D01*
X172152000Y-111660000D01*
X172153000Y-111657000D01*
X172154000Y-111655000D01*
X172155000Y-111652000D01*
X172157000Y-111650000D01*
X172158000Y-111648000D01*
X172160000Y-111646000D01*
X172161000Y-111644000D01*
X172163000Y-111642000D01*
X172165000Y-111640000D01*
X172167000Y-111638000D01*
X172169000Y-111636000D01*
X172171000Y-111635000D01*
X172173000Y-111633000D01*
X172175000Y-111632000D01*
X172177000Y-111630000D01*
X172180000Y-111629000D01*
X172182000Y-111628000D01*
X172185000Y-111627000D01*
X172187000Y-111627000D01*
X172190000Y-111626000D01*
X172192000Y-111626000D01*
X172195000Y-111625000D01*
X172197000Y-111625000D01*
X172200000Y-111625000D01*
X172500000Y-111625000D01*
X172500000Y-111375000D01*
X172200000Y-111375000D01*
X172197000Y-111375000D01*
X172195000Y-111375000D01*
X172192000Y-111374000D01*
X172190000Y-111374000D01*
X172187000Y-111373000D01*
X172185000Y-111373000D01*
X172182000Y-111372000D01*
X172180000Y-111371000D01*
X172177000Y-111370000D01*
X172175000Y-111368000D01*
X172173000Y-111367000D01*
X172171000Y-111365000D01*
X172169000Y-111364000D01*
X172167000Y-111362000D01*
X172165000Y-111360000D01*
X172163000Y-111358000D01*
X172161000Y-111356000D01*
X172160000Y-111354000D01*
X172158000Y-111352000D01*
X172157000Y-111350000D01*
X172155000Y-111348000D01*
X172154000Y-111345000D01*
X172153000Y-111343000D01*
X172152000Y-111340000D01*
X172152000Y-111338000D01*
X172151000Y-111335000D01*
X172151000Y-111333000D01*
X172150000Y-111330000D01*
X172150000Y-111328000D01*
X172150000Y-111325000D01*
X172150000Y-111175000D01*
X172150000Y-111172000D01*
X172150000Y-111170000D01*
X172151000Y-111167000D01*
X172151000Y-111165000D01*
X172152000Y-111162000D01*
X172152000Y-111160000D01*
X172153000Y-111157000D01*
X172154000Y-111155000D01*
X172155000Y-111152000D01*
X172157000Y-111150000D01*
X172158000Y-111148000D01*
X172160000Y-111146000D01*
X172161000Y-111144000D01*
X172163000Y-111142000D01*
X172165000Y-111140000D01*
X172167000Y-111138000D01*
X172169000Y-111136000D01*
X172171000Y-111135000D01*
X172173000Y-111133000D01*
X172175000Y-111132000D01*
X172177000Y-111130000D01*
X172180000Y-111129000D01*
X172182000Y-111128000D01*
X172185000Y-111127000D01*
X172187000Y-111127000D01*
X172190000Y-111126000D01*
X172192000Y-111126000D01*
X172195000Y-111125000D01*
X172197000Y-111125000D01*
X172200000Y-111125000D01*
X172700000Y-111125000D01*
X172703000Y-111125000D01*
X172705000Y-111125000D01*
X172708000Y-111126000D01*
G37*
X175550000Y-111175000D02*
X175550000Y-111325000D01*
X175550000Y-111328000D01*
X175550000Y-111330000D01*
X175549000Y-111333000D01*
X175549000Y-111335000D01*
X175548000Y-111338000D01*
X175548000Y-111340000D01*
X175547000Y-111343000D01*
X175546000Y-111345000D01*
X175545000Y-111348000D01*
X175543000Y-111350000D01*
X175542000Y-111352000D01*
X175540000Y-111354000D01*
X175539000Y-111356000D01*
X175537000Y-111358000D01*
X175535000Y-111360000D01*
X175533000Y-111362000D01*
X175531000Y-111364000D01*
X175529000Y-111365000D01*
X175527000Y-111367000D01*
X175525000Y-111368000D01*
X175523000Y-111370000D01*
X175520000Y-111371000D01*
X175518000Y-111372000D01*
X175515000Y-111373000D01*
X175513000Y-111373000D01*
X175510000Y-111374000D01*
X175508000Y-111374000D01*
X175505000Y-111375000D01*
X175503000Y-111375000D01*
X175500000Y-111375000D01*
X175200000Y-111375000D01*
X175200000Y-111625000D01*
X175500000Y-111625000D01*
X175503000Y-111625000D01*
X175505000Y-111625000D01*
X175508000Y-111626000D01*
X175510000Y-111626000D01*
X175513000Y-111627000D01*
X175515000Y-111627000D01*
X175518000Y-111628000D01*
X175520000Y-111629000D01*
X175523000Y-111630000D01*
X175525000Y-111632000D01*
X175527000Y-111633000D01*
X175529000Y-111635000D01*
X175531000Y-111636000D01*
X175533000Y-111638000D01*
X175535000Y-111640000D01*
X175537000Y-111642000D01*
X175539000Y-111644000D01*
X175540000Y-111646000D01*
X175542000Y-111648000D01*
X175543000Y-111650000D01*
X175545000Y-111652000D01*
X175546000Y-111655000D01*
X175547000Y-111657000D01*
X175548000Y-111660000D01*
X175548000Y-111662000D01*
X175549000Y-111665000D01*
X175549000Y-111667000D01*
X175550000Y-111670000D01*
X175550000Y-111672000D01*
X175550000Y-111675000D01*
X175550000Y-111825000D01*
X175550000Y-111828000D01*
X175550000Y-111830000D01*
X175549000Y-111833000D01*
X175549000Y-111835000D01*
X175548000Y-111838000D01*
X175548000Y-111840000D01*
X175547000Y-111843000D01*
X175546000Y-111845000D01*
X175545000Y-111848000D01*
X175543000Y-111850000D01*
X175542000Y-111852000D01*
X175540000Y-111854000D01*
X175539000Y-111856000D01*
X175537000Y-111858000D01*
X175535000Y-111860000D01*
X175533000Y-111862000D01*
X175531000Y-111864000D01*
X175529000Y-111865000D01*
X175527000Y-111867000D01*
X175525000Y-111868000D01*
X175523000Y-111870000D01*
X175520000Y-111871000D01*
X175518000Y-111872000D01*
X175515000Y-111873000D01*
X175513000Y-111873000D01*
X175510000Y-111874000D01*
X175508000Y-111874000D01*
X175505000Y-111875000D01*
X175503000Y-111875000D01*
X175500000Y-111875000D01*
X175000000Y-111875000D01*
X174997000Y-111875000D01*
X174995000Y-111875000D01*
X174992000Y-111874000D01*
X174990000Y-111874000D01*
X174987000Y-111873000D01*
X174985000Y-111873000D01*
X174982000Y-111872000D01*
X174980000Y-111871000D01*
X174977000Y-111870000D01*
X174975000Y-111868000D01*
X174973000Y-111867000D01*
X174971000Y-111865000D01*
X174969000Y-111864000D01*
X174967000Y-111862000D01*
X174965000Y-111860000D01*
X174963000Y-111858000D01*
X174961000Y-111856000D01*
X174960000Y-111854000D01*
X174958000Y-111852000D01*
X174957000Y-111850000D01*
X174955000Y-111848000D01*
X174954000Y-111845000D01*
X174953000Y-111843000D01*
X174952000Y-111840000D01*
X174952000Y-111838000D01*
X174951000Y-111835000D01*
X174951000Y-111833000D01*
X174950000Y-111830000D01*
X174950000Y-111828000D01*
X174950000Y-111825000D01*
X174950000Y-111175000D01*
X174950000Y-111172000D01*
X174950000Y-111170000D01*
X174951000Y-111167000D01*
X174951000Y-111165000D01*
X174952000Y-111162000D01*
X174952000Y-111160000D01*
X174953000Y-111157000D01*
X174954000Y-111155000D01*
X174955000Y-111152000D01*
X174957000Y-111150000D01*
X174958000Y-111148000D01*
X174960000Y-111146000D01*
X174961000Y-111144000D01*
X174963000Y-111142000D01*
X174965000Y-111140000D01*
X174967000Y-111138000D01*
X174969000Y-111136000D01*
X174971000Y-111135000D01*
X174973000Y-111133000D01*
X174975000Y-111132000D01*
X174977000Y-111130000D01*
X174980000Y-111129000D01*
X174982000Y-111128000D01*
X174985000Y-111127000D01*
X174987000Y-111127000D01*
X174990000Y-111126000D01*
X174992000Y-111126000D01*
X174995000Y-111125000D01*
X174997000Y-111125000D01*
X175000000Y-111125000D01*
X175500000Y-111125000D01*
X175503000Y-111125000D01*
X175505000Y-111125000D01*
X175508000Y-111126000D01*
X175510000Y-111126000D01*
X175513000Y-111127000D01*
X175515000Y-111127000D01*
X175518000Y-111128000D01*
X175520000Y-111129000D01*
X175523000Y-111130000D01*
X175525000Y-111132000D01*
X175527000Y-111133000D01*
X175529000Y-111135000D01*
X175531000Y-111136000D01*
X175533000Y-111138000D01*
X175535000Y-111140000D01*
X175537000Y-111142000D01*
X175539000Y-111144000D01*
X175540000Y-111146000D01*
X175542000Y-111148000D01*
X175543000Y-111150000D01*
X175545000Y-111152000D01*
X175546000Y-111155000D01*
X175547000Y-111157000D01*
X175548000Y-111160000D01*
X175548000Y-111162000D01*
X175549000Y-111165000D01*
X175549000Y-111167000D01*
X175550000Y-111170000D01*
X175550000Y-111172000D01*
X175550000Y-111175000D01*
G36*
X175508000Y-111126000D02*
G01*
X175510000Y-111126000D01*
X175513000Y-111127000D01*
X175515000Y-111127000D01*
X175518000Y-111128000D01*
X175520000Y-111129000D01*
X175523000Y-111130000D01*
X175525000Y-111132000D01*
X175527000Y-111133000D01*
X175529000Y-111135000D01*
X175531000Y-111136000D01*
X175533000Y-111138000D01*
X175535000Y-111140000D01*
X175537000Y-111142000D01*
X175539000Y-111144000D01*
X175540000Y-111146000D01*
X175542000Y-111148000D01*
X175543000Y-111150000D01*
X175545000Y-111152000D01*
X175546000Y-111155000D01*
X175547000Y-111157000D01*
X175548000Y-111160000D01*
X175548000Y-111162000D01*
X175549000Y-111165000D01*
X175549000Y-111167000D01*
X175550000Y-111170000D01*
X175550000Y-111172000D01*
X175550000Y-111175000D01*
X175550000Y-111325000D01*
X175550000Y-111328000D01*
X175550000Y-111330000D01*
X175549000Y-111333000D01*
X175549000Y-111335000D01*
X175548000Y-111338000D01*
X175548000Y-111340000D01*
X175547000Y-111343000D01*
X175546000Y-111345000D01*
X175545000Y-111348000D01*
X175543000Y-111350000D01*
X175542000Y-111352000D01*
X175540000Y-111354000D01*
X175539000Y-111356000D01*
X175537000Y-111358000D01*
X175535000Y-111360000D01*
X175533000Y-111362000D01*
X175531000Y-111364000D01*
X175529000Y-111365000D01*
X175527000Y-111367000D01*
X175525000Y-111368000D01*
X175523000Y-111370000D01*
X175520000Y-111371000D01*
X175518000Y-111372000D01*
X175515000Y-111373000D01*
X175513000Y-111373000D01*
X175510000Y-111374000D01*
X175508000Y-111374000D01*
X175505000Y-111375000D01*
X175503000Y-111375000D01*
X175500000Y-111375000D01*
X175200000Y-111375000D01*
X175200000Y-111625000D01*
X175500000Y-111625000D01*
X175503000Y-111625000D01*
X175505000Y-111625000D01*
X175508000Y-111626000D01*
X175510000Y-111626000D01*
X175513000Y-111627000D01*
X175515000Y-111627000D01*
X175518000Y-111628000D01*
X175520000Y-111629000D01*
X175523000Y-111630000D01*
X175525000Y-111632000D01*
X175527000Y-111633000D01*
X175529000Y-111635000D01*
X175531000Y-111636000D01*
X175533000Y-111638000D01*
X175535000Y-111640000D01*
X175537000Y-111642000D01*
X175539000Y-111644000D01*
X175540000Y-111646000D01*
X175542000Y-111648000D01*
X175543000Y-111650000D01*
X175545000Y-111652000D01*
X175546000Y-111655000D01*
X175547000Y-111657000D01*
X175548000Y-111660000D01*
X175548000Y-111662000D01*
X175549000Y-111665000D01*
X175549000Y-111667000D01*
X175550000Y-111670000D01*
X175550000Y-111672000D01*
X175550000Y-111675000D01*
X175550000Y-111825000D01*
X175550000Y-111828000D01*
X175550000Y-111830000D01*
X175549000Y-111833000D01*
X175549000Y-111835000D01*
X175548000Y-111838000D01*
X175548000Y-111840000D01*
X175547000Y-111843000D01*
X175546000Y-111845000D01*
X175545000Y-111848000D01*
X175543000Y-111850000D01*
X175542000Y-111852000D01*
X175540000Y-111854000D01*
X175539000Y-111856000D01*
X175537000Y-111858000D01*
X175535000Y-111860000D01*
X175533000Y-111862000D01*
X175531000Y-111864000D01*
X175529000Y-111865000D01*
X175527000Y-111867000D01*
X175525000Y-111868000D01*
X175523000Y-111870000D01*
X175520000Y-111871000D01*
X175518000Y-111872000D01*
X175515000Y-111873000D01*
X175513000Y-111873000D01*
X175510000Y-111874000D01*
X175508000Y-111874000D01*
X175505000Y-111875000D01*
X175503000Y-111875000D01*
X175500000Y-111875000D01*
X175000000Y-111875000D01*
X174997000Y-111875000D01*
X174995000Y-111875000D01*
X174992000Y-111874000D01*
X174990000Y-111874000D01*
X174987000Y-111873000D01*
X174985000Y-111873000D01*
X174982000Y-111872000D01*
X174980000Y-111871000D01*
X174977000Y-111870000D01*
X174975000Y-111868000D01*
X174973000Y-111867000D01*
X174971000Y-111865000D01*
X174969000Y-111864000D01*
X174967000Y-111862000D01*
X174965000Y-111860000D01*
X174963000Y-111858000D01*
X174961000Y-111856000D01*
X174960000Y-111854000D01*
X174958000Y-111852000D01*
X174957000Y-111850000D01*
X174955000Y-111848000D01*
X174954000Y-111845000D01*
X174953000Y-111843000D01*
X174952000Y-111840000D01*
X174952000Y-111838000D01*
X174951000Y-111835000D01*
X174951000Y-111833000D01*
X174950000Y-111830000D01*
X174950000Y-111828000D01*
X174950000Y-111825000D01*
X174950000Y-111175000D01*
X174950000Y-111172000D01*
X174950000Y-111170000D01*
X174951000Y-111167000D01*
X174951000Y-111165000D01*
X174952000Y-111162000D01*
X174952000Y-111160000D01*
X174953000Y-111157000D01*
X174954000Y-111155000D01*
X174955000Y-111152000D01*
X174957000Y-111150000D01*
X174958000Y-111148000D01*
X174960000Y-111146000D01*
X174961000Y-111144000D01*
X174963000Y-111142000D01*
X174965000Y-111140000D01*
X174967000Y-111138000D01*
X174969000Y-111136000D01*
X174971000Y-111135000D01*
X174973000Y-111133000D01*
X174975000Y-111132000D01*
X174977000Y-111130000D01*
X174980000Y-111129000D01*
X174982000Y-111128000D01*
X174985000Y-111127000D01*
X174987000Y-111127000D01*
X174990000Y-111126000D01*
X174992000Y-111126000D01*
X174995000Y-111125000D01*
X174997000Y-111125000D01*
X175000000Y-111125000D01*
X175500000Y-111125000D01*
X175503000Y-111125000D01*
X175505000Y-111125000D01*
X175508000Y-111126000D01*
G37*
%TD*%
D11*
%TO.C,C21*%
X158500000Y-110750000D03*
X156950000Y-110750000D03*
%TD*%
D12*
%TO.C,GND1*%
X176500000Y-104750000D03*
%TD*%
D13*
%TO.C,C4*%
X170000000Y-115475000D03*
X170000000Y-112525000D03*
%TD*%
D14*
%TO.C,C32*%
X136750000Y-114025000D03*
X136750000Y-112475000D03*
%TD*%
D15*
%TO.C,C10*%
X163000000Y-102250000D03*
X163000000Y-100350000D03*
%TD*%
D13*
%TO.C,C7*%
X163750000Y-115475000D03*
X163750000Y-112525000D03*
%TD*%
D16*
%TO.C,L1*%
X173462500Y-113750000D03*
X175037500Y-113750000D03*
%TD*%
D17*
%TO.C,C28*%
X147250000Y-111730000D03*
X147250000Y-110770000D03*
%TD*%
D18*
%TO.C,C9*%
X165700000Y-109250000D03*
X163800000Y-109250000D03*
%TD*%
D19*
%TO.C,C3*%
X165500000Y-104100000D03*
X165500000Y-106000000D03*
%TD*%
D14*
%TO.C,C13*%
X166750000Y-102075000D03*
X166750000Y-100525000D03*
%TD*%
D19*
%TO.C,C5*%
X170000000Y-104000000D03*
X170000000Y-105900000D03*
%TD*%
D20*
%TO.C,U5*%
X160300000Y-109300000D03*
X161250000Y-109300000D03*
X162200000Y-109300000D03*
X162200000Y-106700000D03*
X160300000Y-106700000D03*
%TD*%
D21*
%TO.C,CN1*%
X166800000Y-86650000D03*
X166000000Y-86650000D03*
X165200000Y-86650000D03*
X164400000Y-86650000D03*
X163600000Y-86650000D03*
X162800000Y-86650000D03*
X162000000Y-86650000D03*
X161200000Y-86650000D03*
D22*
X160050000Y-84850000D03*
X167950000Y-84850000D03*
%TD*%
D23*
%TO.C,C16*%
X139725000Y-102250000D03*
X141275000Y-102250000D03*
%TD*%
D24*
%TO.C,D1*%
X135225000Y-92750000D03*
X137275000Y-92750000D03*
%TD*%
D11*
%TO.C,C19*%
X158525000Y-107250000D03*
X156975000Y-107250000D03*
%TD*%
D25*
%TO.C,C8*%
X173300000Y-115750000D03*
X175200000Y-115750000D03*
%TD*%
D26*
%TO.C,X2*%
X143500000Y-111250000D03*
X143500000Y-108750000D03*
%TD*%
D27*
%TO.C,U1*%
X145250000Y-106490001D03*
X145750000Y-106490001D03*
X146250000Y-106490001D03*
X146750000Y-106490001D03*
X147250000Y-106490001D03*
X147750000Y-106490001D03*
X148250000Y-106490001D03*
X148750000Y-106490001D03*
X149250000Y-106490001D03*
X149750000Y-106490001D03*
X150250000Y-106490001D03*
X150750000Y-106490001D03*
X151250000Y-106490001D03*
X151750000Y-106490001D03*
X152250000Y-106490001D03*
X152750000Y-106490001D03*
D28*
X154670000Y-104570001D03*
X154670000Y-104070001D03*
X154670000Y-103570001D03*
X154670000Y-103070001D03*
X154670000Y-102570001D03*
X154670000Y-102070001D03*
X154670000Y-101570001D03*
X154670000Y-101070001D03*
X154670000Y-100570001D03*
X154670000Y-100070001D03*
X154670000Y-99570001D03*
X154670000Y-99070001D03*
X154670000Y-98570001D03*
X154670000Y-98070001D03*
X154670000Y-97570001D03*
X154670000Y-97070001D03*
D27*
X152750000Y-95150001D03*
X152250000Y-95150001D03*
X151750000Y-95150001D03*
X151250000Y-95150001D03*
X150750000Y-95150001D03*
X150250000Y-95150001D03*
X149750000Y-95150001D03*
X149250000Y-95150001D03*
X148750000Y-95150001D03*
X148250000Y-95150001D03*
X147750000Y-95150001D03*
X147250000Y-95150001D03*
X146750000Y-95150001D03*
X146250000Y-95150001D03*
X145750000Y-95150001D03*
X145250000Y-95150001D03*
D28*
X143330000Y-97070001D03*
X143330000Y-97570001D03*
X143330000Y-98070001D03*
X143330000Y-98570001D03*
X143330000Y-99070001D03*
X143330000Y-99570001D03*
X143330000Y-100070001D03*
X143330000Y-100570001D03*
X143330000Y-101070001D03*
X143330000Y-101570001D03*
X143330000Y-102070001D03*
X143330000Y-102570001D03*
X143330000Y-103070001D03*
X143330000Y-103570001D03*
X143330000Y-104070001D03*
X143330000Y-104570001D03*
%TD*%
D29*
%TO.C,U4*%
X158550000Y-100500000D03*
X158550000Y-101000000D03*
X158550000Y-101500000D03*
X158550000Y-102000000D03*
X158550000Y-102500000D03*
D30*
X159275000Y-102725000D03*
X159775000Y-102725000D03*
X160275000Y-102725000D03*
D29*
X161000000Y-102500000D03*
X161000000Y-102000000D03*
X161000000Y-101500000D03*
X161000000Y-101000000D03*
X161000000Y-100500000D03*
D30*
X160275000Y-100275000D03*
X159775000Y-100275000D03*
X159275000Y-100275000D03*
%TD*%
D31*
%TO.C,SW1*%
X140500000Y-115680000D03*
X140500000Y-111320000D03*
%TD*%
D32*
%TO.C,C31*%
X145250000Y-108520000D03*
X145250000Y-109480000D03*
%TD*%
D33*
%TO.C,REF\u002A\u002A*%
X146500000Y-117500000D03*
X151000000Y-117500000D03*
X156000000Y-117500000D03*
X160000000Y-117500000D03*
%TD*%
D34*
%TO.C,R7*%
X171000000Y-110920000D03*
X171000000Y-110280000D03*
%TD*%
%TO.C,R1*%
X148250000Y-93070000D03*
X148250000Y-92430000D03*
%TD*%
D11*
%TO.C,C20*%
X158500000Y-112500000D03*
X156950000Y-112500000D03*
%TD*%
%TO.C,C22*%
X158500000Y-109000000D03*
X156950000Y-109000000D03*
%TD*%
D19*
%TO.C,C2*%
X167750000Y-104050000D03*
X167750000Y-105950000D03*
%TD*%
D17*
%TO.C,C30*%
X145250000Y-111480000D03*
X145250000Y-110520000D03*
%TD*%
D19*
%TO.C,C1*%
X172250000Y-104050000D03*
X172250000Y-105950000D03*
%TD*%
D23*
%TO.C,C15*%
X159450000Y-97500000D03*
X161000000Y-97500000D03*
%TD*%
%TO.C,C17*%
X139700000Y-104000000D03*
X141250000Y-104000000D03*
%TD*%
D35*
%TO.C,J1*%
X149890000Y-89055000D03*
X144110000Y-89055000D03*
D36*
X150250000Y-90500000D03*
X149450000Y-90500000D03*
D37*
X148250000Y-90500000D03*
X147250000Y-90500000D03*
X146750000Y-90500000D03*
X145750000Y-90500000D03*
D36*
X143750000Y-90500000D03*
X144550000Y-90500000D03*
D37*
X145250000Y-90500000D03*
X146250000Y-90500000D03*
X147750000Y-90500000D03*
X148750000Y-90500000D03*
D38*
X151320000Y-89585000D03*
X142680000Y-89585000D03*
X151320000Y-85405000D03*
X142680000Y-85405000D03*
%TD*%
D39*
%TO.C,H1*%
X131250000Y-115500000D03*
%TD*%
D34*
%TO.C,R2*%
X145250000Y-93070000D03*
X145250000Y-92430000D03*
%TD*%
D40*
%TO.C,SW2*%
X135640000Y-107500000D03*
X140000000Y-107500000D03*
%TD*%
D41*
%TO.C,X1*%
X149000000Y-109300000D03*
X149000000Y-111500000D03*
X150700000Y-111500000D03*
X150700000Y-109300000D03*
%TD*%
D42*
%TO.C,R8*%
X135337500Y-89500000D03*
X137162500Y-89500000D03*
%TD*%
D39*
%TO.C,H4*%
X179250000Y-115500000D03*
%TD*%
D18*
%TO.C,C25*%
X134950000Y-102000000D03*
X133050000Y-102000000D03*
%TD*%
D32*
%TO.C,C29*%
X152250000Y-110270000D03*
X152250000Y-111230000D03*
%TD*%
%TO.C,C14*%
X168250000Y-100820000D03*
X168250000Y-101780000D03*
%TD*%
D18*
%TO.C,C27*%
X135000000Y-97000000D03*
X133100000Y-97000000D03*
%TD*%
D43*
%TO.C,R6*%
X141430000Y-108000000D03*
X142070000Y-108000000D03*
%TD*%
D44*
%TO.C,U6*%
X139690000Y-99250000D03*
X139690000Y-99750000D03*
X139970000Y-100280000D03*
X140470000Y-100280000D03*
X140970000Y-100280000D03*
X141250000Y-99750000D03*
X141250000Y-99250000D03*
X140970000Y-98720000D03*
X140470000Y-98720000D03*
X139970000Y-98720000D03*
%TD*%
D12*
%TO.C,+V1*%
X176500000Y-98500000D03*
%TD*%
D39*
%TO.C,H2*%
X131250000Y-86500000D03*
%TD*%
%TO.C,H3*%
X179250000Y-86500000D03*
%TD*%
D18*
%TO.C,C24*%
X134950000Y-104250000D03*
X133050000Y-104250000D03*
%TD*%
D43*
%TO.C,R4*%
X171025000Y-108750000D03*
X171665000Y-108750000D03*
%TD*%
D18*
%TO.C,C26*%
X134950000Y-99500000D03*
X133050000Y-99500000D03*
%TD*%
D14*
%TO.C,C12*%
X165000000Y-102075000D03*
X165000000Y-100525000D03*
%TD*%
D45*
%TO.C,R5*%
X168500000Y-110280000D03*
X168500000Y-110920000D03*
%TD*%
D15*
%TO.C,C23*%
X157250000Y-98700000D03*
X157250000Y-96800000D03*
%TD*%
D13*
%TO.C,C6*%
X167500000Y-115500000D03*
X167500000Y-112550000D03*
%TD*%
D46*
%TO.C,C18*%
X157000000Y-103475000D03*
X157000000Y-105025000D03*
%TD*%
D34*
%TO.C,R3*%
X176500000Y-112240000D03*
X176500000Y-111600000D03*
%TD*%
M02*
