M48
; DRILL file KiCad 10.0.3 date 2026-06-15T21:55:33
; FORMAT={-:-/ absolute / metric / decimal}
; #@! TF.CreationDate,2026-06-15T21:55:33+02:00
; #@! TF.GenerationSoftware,Kicad,Pcbnew,10.0.3
; #@! TF.FileFunction,Plated,1,2,PTH
FMAT,2
METRIC
; #@! TA.AperFunction,Plated,PTH,ViaDrill
T1C0.300
; #@! TA.AperFunction,Plated,PTH,ComponentDrill
T2C0.650
; #@! TA.AperFunction,Plated,PTH,ComponentDrill
T3C0.800
%
G90
G05
T1
X133.0Y-96.75
X133.0Y-99.25
X133.0Y-101.75
X133.0Y-104.0
X135.75Y-94.25
X136.75Y-115.0
X137.5Y-100.75
X138.5Y-100.0
X138.5Y-115.5
X140.5Y-99.5
X141.5Y-89.5
X141.5Y-98.25
X141.5Y-109.0
X142.0Y-110.0
X143.0Y-105.5
X143.25Y-91.25
X143.75Y-85.5
X143.75Y-109.75
X144.5Y-93.75
X144.5Y-106.5
X144.75Y-100.75
X144.75Y-117.5
X145.25Y-103.5
X145.75Y-96.5
X146.15Y-107.92
X146.25Y-109.75
X146.5Y-111.75
X148.0Y-105.0
X148.25Y-93.75
X148.5Y-99.75
X149.0Y-112.5
X149.75Y-85.5
X150.024Y-110.265
X150.25Y-99.25
X150.75Y-107.7
X151.15Y-105.0
X152.25Y-109.5
X152.35Y-104.0
X152.5Y-89.5
X152.75Y-91.0
X152.945Y-105.0
X153.25Y-100.25
X153.435Y-101.988
X154.75Y-106.5
X154.75Y-116.25
X156.0Y-86.75
X156.0Y-96.75
X156.0Y-97.47
X156.0Y-105.25
X156.0Y-107.25
X156.0Y-109.0
X156.0Y-110.75
X156.0Y-112.5
X156.75Y-92.5
X157.0Y-100.25
X157.25Y-88.5
X158.0Y-116.0
X158.25Y-88.5
X158.5Y-103.5
X159.329Y-101.05
X159.5Y-99.25
X160.25Y-101.75
X160.75Y-112.25
X161.0Y-84.75
X161.0Y-98.5
X161.0Y-103.5
X161.25Y-108.0
X161.75Y-99.25
X161.75Y-100.5
X161.75Y-101.25
X161.75Y-102.0
X161.75Y-110.5
X163.0Y-103.25
X163.75Y-111.25
X163.75Y-113.75
X165.0Y-103.0
X165.0Y-106.0
X165.75Y-95.0
X165.75Y-110.5
X166.25Y-112.5
X166.75Y-87.75
X166.75Y-103.0
X167.0Y-84.75
X167.5Y-106.0
X167.75Y-109.75
X169.25Y-101.5
X169.75Y-106.0
X171.25Y-112.5
X171.75Y-109.68
X172.0Y-106.0
X172.451Y-109.049
X172.75Y-107.5
X174.62Y-107.63
X175.25Y-116.75
X176.25Y-110.25
T3
X146.5Y-117.5
X151.0Y-117.5
X156.0Y-117.5
X160.0Y-117.5
T2
G00X142.68Y-85.705
M15
G01X142.68Y-85.105
M16
G05
G00X142.68Y-90.135
M15
G01X142.68Y-89.035
M16
G05
G00X151.32Y-85.705
M15
G01X151.32Y-85.105
M16
G05
G00X151.32Y-90.135
M15
G01X151.32Y-89.035
M16
G05
M30
